<?xml version="1.0" standalone="no"?>
 <!DOCTYPE svg PUBLIC "-//W3C//DTD SVG 1.1//EN" 
 "http://www.w3.org/Graphics/SVG/1.1/DTD/svg11.dtd"> 
<svg
  xmlns:svg="http://www.w3.org/2000/svg"
  xmlns="http://www.w3.org/2000/svg"
  xmlns:xlink="http://www.w3.org/1999/xlink"
  version="1.1"
  width="3.619500cm" height="7.584440cm" viewBox="0 0 14250 29860">
<title>SVG Picture created as RP_Pico.svg date 2021/11/24 13:36:40 </title>
  <desc>Picture generated by Eeschema-SVG </desc>
<g style="fill:#000000; fill-opacity:1;stroke:#000000; stroke-opacity:1;
stroke-linecap:round; stroke-linejoin:round;"
 transform="translate(0 0) scale(1 1)">
</g>
<g style="fill:#840000; fill-opacity:0.0; 
stroke:#840000; stroke-width:-10; stroke-opacity:1; 
stroke-linecap:round; stroke-linejoin:round;">
</g>
<g style="fill:#FFFFC2; fill-opacity:0.0; 
stroke:#FFFFC2; stroke-width:-10; stroke-opacity:1; 
stroke-linecap:round; stroke-linejoin:round;">
</g>
<g style="fill:#FFFFC2; fill-opacity:0.6; 
stroke:#FFFFC2; stroke-width:0; stroke-opacity:1; 
stroke-linecap:round; stroke-linejoin:round;">
<rect x="2620" y="1930" width="9500" height="23000" rx="0" />
</g>
<g style="fill:#840000; fill-opacity:0.6; 
stroke:#840000; stroke-width:0; stroke-opacity:1; 
stroke-linecap:round; stroke-linejoin:round;">
</g>
<g style="fill:#840000; fill-opacity:0.0; 
stroke:#840000; stroke-width:60; stroke-opacity:1; 
stroke-linecap:round; stroke-linejoin:round;">
<rect x="2620" y="1930" width="9500" height="23000" rx="0" />
<text x="7120" y="1700"
textLength="6870" font-size="660" lengthAdjust="spacingAndGlyphs"
text-anchor="middle" opacity="0">Raspberry Pi Pico</text>
<path d="M4120 1670
L3950 1430
" />
<path d="M3830 1670
L3830 1170
L4020 1170
L4070 1200
L4090 1220
L4120 1270
L4120 1340
L4090 1390
L4070 1410
L4020 1430
L3830 1430
" />
<path d="M4540 1670
L4540 1410
L4520 1360
L4470 1340
L4380 1340
L4330 1360
" />
<path d="M4540 1650
L4500 1670
L4380 1670
L4330 1650
L4310 1600
L4310 1550
L4330 1500
L4380 1480
L4500 1480
L4540 1460
" />
<path d="M4760 1650
L4810 1670
L4900 1670
L4950 1650
L4970 1600
L4970 1580
L4950 1530
L4900 1500
L4830 1500
L4780 1480
L4760 1430
L4760 1410
L4780 1360
L4830 1340
L4900 1340
L4950 1360
" />
<path d="M5190 1340
L5190 1840
" />
<path d="M5190 1360
L5230 1340
L5330 1340
L5380 1360
L5400 1390
L5420 1430
L5420 1580
L5400 1620
L5380 1650
L5330 1670
L5230 1670
L5190 1650
" />
<path d="M5640 1670
L5640 1170
" />
<path d="M5640 1360
L5690 1340
L5780 1340
L5830 1360
L5850 1390
L5880 1430
L5880 1580
L5850 1620
L5830 1650
L5780 1670
L5690 1670
L5640 1650
" />
<path d="M6280 1650
L6230 1670
L6140 1670
L6090 1650
L6070 1600
L6070 1410
L6090 1360
L6140 1340
L6230 1340
L6280 1360
L6310 1410
L6310 1460
L6070 1500
" />
<path d="M6520 1670
L6520 1340
" />
<path d="M6520 1430
L6540 1390
L6570 1360
L6620 1340
L6660 1340
" />
<path d="M6830 1670
L6830 1340
" />
<path d="M6830 1430
L6850 1390
L6880 1360
L6920 1340
L6970 1340
" />
<path d="M7090 1340
L7210 1670
" />
<path d="M7330 1340
L7210 1670
L7160 1790
L7140 1810
L7090 1840
" />
<path d="M7900 1670
L7900 1170
L8090 1170
L8140 1200
L8160 1220
L8190 1270
L8190 1340
L8160 1390
L8140 1410
L8090 1430
L7900 1430
" />
<path d="M8400 1670
L8400 1340
" />
<path d="M8400 1170
L8380 1200
L8400 1220
L8420 1200
L8400 1170
L8400 1220
" />
<path d="M9020 1670
L9020 1170
L9210 1170
L9260 1200
L9280 1220
L9310 1270
L9310 1340
L9280 1390
L9260 1410
L9210 1430
L9020 1430
" />
<path d="M9520 1670
L9520 1340
" />
<path d="M9520 1170
L9500 1200
L9520 1220
L9540 1200
L9520 1170
L9520 1220
" />
<path d="M9970 1650
L9920 1670
L9830 1670
L9780 1650
L9760 1620
L9730 1580
L9730 1430
L9760 1390
L9780 1360
L9830 1340
L9920 1340
L9970 1360
" />
<path d="M10260 1670
L10210 1650
L10190 1620
L10160 1580
L10160 1430
L10190 1390
L10210 1360
L10260 1340
L10330 1340
L10380 1360
L10400 1390
L10420 1430
L10420 1580
L10400 1620
L10380 1650
L10330 1670
L10260 1670
" />
<rect x="2620" y="1930" width="9500" height="23000" rx="0" />
<path d="M12120 2430
L13120 2430
" />
</g>
<g style="fill:#008484; fill-opacity:0.0; 
stroke:#008484; stroke-width:60; stroke-opacity:1; 
stroke-linecap:round; stroke-linejoin:round;">
<text x="11920" y="2680"
textLength="2300" font-size="660" lengthAdjust="spacingAndGlyphs"
text-anchor="end" opacity="0">GPIO0</text>
<path d="M10030 2180
L9980 2150
L9910 2150
L9840 2180
L9790 2220
L9770 2270
L9740 2370
L9740 2440
L9770 2530
L9790 2580
L9840 2630
L9910 2650
L9960 2650
L10030 2630
L10050 2600
L10050 2440
L9960 2440
" />
<path d="M10270 2650
L10270 2150
L10460 2150
L10500 2180
L10530 2200
L10550 2250
L10550 2320
L10530 2370
L10500 2390
L10460 2410
L10270 2410
" />
<path d="M10770 2650
L10770 2150
" />
<path d="M11100 2150
L11190 2150
L11240 2180
L11290 2220
L11310 2320
L11310 2480
L11290 2580
L11240 2630
L11190 2650
L11100 2650
L11050 2630
L11000 2580
L10980 2480
L10980 2320
L11000 2220
L11050 2180
L11100 2150
" />
<path d="M11620 2150
L11670 2150
L11720 2180
L11740 2200
L11770 2250
L11790 2340
L11790 2460
L11770 2560
L11740 2600
L11720 2630
L11670 2650
L11620 2650
L11580 2630
L11550 2600
L11530 2560
L11500 2460
L11500 2340
L11530 2250
L11550 2200
L11580 2180
L11620 2150
" />
</g>
<g style="fill:#840000; fill-opacity:0.0; 
stroke:#840000; stroke-width:60; stroke-opacity:1; 
stroke-linecap:round; stroke-linejoin:round;">
<text x="12620" y="2330"
textLength="540" font-size="660" lengthAdjust="spacingAndGlyphs"
text-anchor="middle" opacity="0">1</text>
<path d="M12760 2300
L12470 2300
" />
<path d="M12620 2300
L12620 1800
L12570 1870
L12520 1920
L12470 1940
" />
<path d="M12120 9430
L13120 9430
" />
</g>
<g style="fill:#008484; fill-opacity:0.0; 
stroke:#008484; stroke-width:60; stroke-opacity:1; 
stroke-linecap:round; stroke-linejoin:round;">
<text x="11920" y="9680"
textLength="2300" font-size="660" lengthAdjust="spacingAndGlyphs"
text-anchor="end" opacity="0">GPIO7</text>
<path d="M10030 9180
L9980 9150
L9910 9150
L9840 9180
L9790 9220
L9770 9270
L9740 9370
L9740 9440
L9770 9530
L9790 9580
L9840 9630
L9910 9650
L9960 9650
L10030 9630
L10050 9600
L10050 9440
L9960 9440
" />
<path d="M10270 9650
L10270 9150
L10460 9150
L10500 9180
L10530 9200
L10550 9250
L10550 9320
L10530 9370
L10500 9390
L10460 9410
L10270 9410
" />
<path d="M10770 9650
L10770 9150
" />
<path d="M11100 9150
L11190 9150
L11240 9180
L11290 9220
L11310 9320
L11310 9480
L11290 9580
L11240 9630
L11190 9650
L11100 9650
L11050 9630
L11000 9580
L10980 9480
L10980 9320
L11000 9220
L11050 9180
L11100 9150
" />
<path d="M11480 9150
L11810 9150
L11600 9650
" />
</g>
<g style="fill:#840000; fill-opacity:0.0; 
stroke:#840000; stroke-width:60; stroke-opacity:1; 
stroke-linecap:round; stroke-linejoin:round;">
<text x="12620" y="9330"
textLength="1010" font-size="660" lengthAdjust="spacingAndGlyphs"
text-anchor="middle" opacity="0">10</text>
<path d="M12520 9300
L12230 9300
" />
<path d="M12380 9300
L12380 8800
L12330 8870
L12280 8920
L12230 8940
" />
<path d="M12830 8800
L12880 8800
L12920 8830
L12950 8850
L12970 8900
L13000 8990
L13000 9110
L12970 9210
L12950 9250
L12920 9280
L12880 9300
L12830 9300
L12780 9280
L12760 9250
L12730 9210
L12710 9110
L12710 8990
L12730 8900
L12760 8850
L12780 8830
L12830 8800
" />
<path d="M12120 10430
L13120 10430
" />
</g>
<g style="fill:#008484; fill-opacity:0.0; 
stroke:#008484; stroke-width:60; stroke-opacity:1; 
stroke-linecap:round; stroke-linejoin:round;">
<text x="11920" y="10680"
textLength="2300" font-size="660" lengthAdjust="spacingAndGlyphs"
text-anchor="end" opacity="0">GPIO8</text>
<path d="M10030 10180
L9980 10150
L9910 10150
L9840 10180
L9790 10220
L9770 10270
L9740 10370
L9740 10440
L9770 10530
L9790 10580
L9840 10630
L9910 10650
L9960 10650
L10030 10630
L10050 10600
L10050 10440
L9960 10440
" />
<path d="M10270 10650
L10270 10150
L10460 10150
L10500 10180
L10530 10200
L10550 10250
L10550 10320
L10530 10370
L10500 10390
L10460 10410
L10270 10410
" />
<path d="M10770 10650
L10770 10150
" />
<path d="M11100 10150
L11190 10150
L11240 10180
L11290 10220
L11310 10320
L11310 10480
L11290 10580
L11240 10630
L11190 10650
L11100 10650
L11050 10630
L11000 10580
L10980 10480
L10980 10320
L11000 10220
L11050 10180
L11100 10150
" />
<path d="M11600 10370
L11550 10340
L11530 10320
L11500 10270
L11500 10250
L11530 10200
L11550 10180
L11600 10150
L11690 10150
L11740 10180
L11770 10200
L11790 10250
L11790 10270
L11770 10320
L11740 10340
L11690 10370
L11600 10370
L11550 10390
L11530 10410
L11500 10460
L11500 10560
L11530 10600
L11550 10630
L11600 10650
L11690 10650
L11740 10630
L11770 10600
L11790 10560
L11790 10460
L11770 10410
L11740 10390
L11690 10370
" />
</g>
<g style="fill:#840000; fill-opacity:0.0; 
stroke:#840000; stroke-width:60; stroke-opacity:1; 
stroke-linecap:round; stroke-linejoin:round;">
<text x="12620" y="10330"
textLength="1010" font-size="660" lengthAdjust="spacingAndGlyphs"
text-anchor="middle" opacity="0">11</text>
<path d="M12520 10300
L12230 10300
" />
<path d="M12380 10300
L12380 9800
L12330 9870
L12280 9920
L12230 9940
" />
<path d="M13000 10300
L12710 10300
" />
<path d="M12850 10300
L12850 9800
L12810 9870
L12760 9920
L12710 9940
" />
<path d="M12120 11430
L13120 11430
" />
</g>
<g style="fill:#008484; fill-opacity:0.0; 
stroke:#008484; stroke-width:60; stroke-opacity:1; 
stroke-linecap:round; stroke-linejoin:round;">
<text x="11920" y="11680"
textLength="2300" font-size="660" lengthAdjust="spacingAndGlyphs"
text-anchor="end" opacity="0">GPIO9</text>
<path d="M10030 11180
L9980 11150
L9910 11150
L9840 11180
L9790 11220
L9770 11270
L9740 11370
L9740 11440
L9770 11530
L9790 11580
L9840 11630
L9910 11650
L9960 11650
L10030 11630
L10050 11600
L10050 11440
L9960 11440
" />
<path d="M10270 11650
L10270 11150
L10460 11150
L10500 11180
L10530 11200
L10550 11250
L10550 11320
L10530 11370
L10500 11390
L10460 11410
L10270 11410
" />
<path d="M10770 11650
L10770 11150
" />
<path d="M11100 11150
L11190 11150
L11240 11180
L11290 11220
L11310 11320
L11310 11480
L11290 11580
L11240 11630
L11190 11650
L11100 11650
L11050 11630
L11000 11580
L10980 11480
L10980 11320
L11000 11220
L11050 11180
L11100 11150
" />
<path d="M11550 11650
L11650 11650
L11690 11630
L11720 11600
L11770 11530
L11790 11440
L11790 11250
L11770 11200
L11740 11180
L11690 11150
L11600 11150
L11550 11180
L11530 11200
L11500 11250
L11500 11370
L11530 11410
L11550 11440
L11600 11460
L11690 11460
L11740 11440
L11770 11410
L11790 11370
" />
</g>
<g style="fill:#840000; fill-opacity:0.0; 
stroke:#840000; stroke-width:60; stroke-opacity:1; 
stroke-linecap:round; stroke-linejoin:round;">
<text x="12620" y="11330"
textLength="1010" font-size="660" lengthAdjust="spacingAndGlyphs"
text-anchor="middle" opacity="0">12</text>
<path d="M12520 11300
L12230 11300
" />
<path d="M12380 11300
L12380 10800
L12330 10870
L12280 10920
L12230 10940
" />
<path d="M12710 10850
L12730 10830
L12780 10800
L12900 10800
L12950 10830
L12970 10850
L13000 10900
L13000 10940
L12970 11020
L12690 11300
L13000 11300
" />
<path d="M2620 24430
L1620 24430
" />
</g>
<g style="fill:#008484; fill-opacity:0.0; 
stroke:#008484; stroke-width:60; stroke-opacity:1; 
stroke-linecap:round; stroke-linejoin:round;">
<text x="2820" y="24430"
textLength="60" font-size="0" lengthAdjust="spacingAndGlyphs"
text-anchor="start" opacity="0">GND</text>
</g>
<g style="fill:#008484; fill-opacity:0.0; 
stroke:#008484; stroke-width:0; stroke-opacity:1; 
stroke-linecap:round; stroke-linejoin:round;">
<path d="M2820 24430
L2820 24430
" />
<path d="M2820 24430
L2820 24430
" />
<path d="M2820 24430
L2820 24430
" />
</g>
<g style="fill:#008484; fill-opacity:0.0; 
stroke:#008484; stroke-width:60; stroke-opacity:1; 
stroke-linecap:round; stroke-linejoin:round;">
</g>
<g style="fill:#840000; fill-opacity:0.0; 
stroke:#840000; stroke-width:60; stroke-opacity:1; 
stroke-linecap:round; stroke-linejoin:round;">
<text x="2120" y="24360"
textLength="0" font-size="0" lengthAdjust="spacingAndGlyphs"
text-anchor="middle" opacity="0">13</text>
</g>
<g style="fill:#840000; fill-opacity:0.0; 
stroke:#840000; stroke-width:0; stroke-opacity:1; 
stroke-linecap:round; stroke-linejoin:round;">
<path d="M2120 24360
L2120 24360
" />
<path d="M2120 24360
L2120 24360
" />
<path d="M2120 24360
L2120 24360
" />
</g>
<g style="fill:#840000; fill-opacity:0.0; 
stroke:#840000; stroke-width:60; stroke-opacity:1; 
stroke-linecap:round; stroke-linejoin:round;">
<path d="M12120 12430
L13120 12430
" />
</g>
<g style="fill:#008484; fill-opacity:0.0; 
stroke:#008484; stroke-width:60; stroke-opacity:1; 
stroke-linecap:round; stroke-linejoin:round;">
<text x="11920" y="12680"
textLength="2710" font-size="660" lengthAdjust="spacingAndGlyphs"
text-anchor="end" opacity="0">GPIO10</text>
<path d="M9550 12180
L9500 12150
L9430 12150
L9360 12180
L9310 12220
L9290 12270
L9270 12370
L9270 12440
L9290 12530
L9310 12580
L9360 12630
L9430 12650
L9480 12650
L9550 12630
L9580 12600
L9580 12440
L9480 12440
" />
<path d="M9790 12650
L9790 12150
L9980 12150
L10030 12180
L10050 12200
L10080 12250
L10080 12320
L10050 12370
L10030 12390
L9980 12410
L9790 12410
" />
<path d="M10290 12650
L10290 12150
" />
<path d="M10620 12150
L10720 12150
L10770 12180
L10810 12220
L10840 12320
L10840 12480
L10810 12580
L10770 12630
L10720 12650
L10620 12650
L10580 12630
L10530 12580
L10500 12480
L10500 12320
L10530 12220
L10580 12180
L10620 12150
" />
<path d="M11310 12650
L11030 12650
" />
<path d="M11170 12650
L11170 12150
L11120 12220
L11080 12270
L11030 12290
" />
<path d="M11620 12150
L11670 12150
L11720 12180
L11740 12200
L11770 12250
L11790 12340
L11790 12460
L11770 12560
L11740 12600
L11720 12630
L11670 12650
L11620 12650
L11580 12630
L11550 12600
L11530 12560
L11500 12460
L11500 12340
L11530 12250
L11550 12200
L11580 12180
L11620 12150
" />
</g>
<g style="fill:#840000; fill-opacity:0.0; 
stroke:#840000; stroke-width:60; stroke-opacity:1; 
stroke-linecap:round; stroke-linejoin:round;">
<text x="12620" y="12330"
textLength="1010" font-size="660" lengthAdjust="spacingAndGlyphs"
text-anchor="middle" opacity="0">14</text>
<path d="M12520 12300
L12230 12300
" />
<path d="M12380 12300
L12380 11800
L12330 11870
L12280 11920
L12230 11940
" />
<path d="M12950 11970
L12950 12300
" />
<path d="M12830 11780
L12710 12130
L13020 12130
" />
<path d="M12120 13430
L13120 13430
" />
</g>
<g style="fill:#008484; fill-opacity:0.0; 
stroke:#008484; stroke-width:60; stroke-opacity:1; 
stroke-linecap:round; stroke-linejoin:round;">
<text x="11920" y="13680"
textLength="2770" font-size="660" lengthAdjust="spacingAndGlyphs"
text-anchor="end" opacity="0">GPIO11</text>
<path d="M9550 13180
L9500 13150
L9430 13150
L9360 13180
L9310 13220
L9290 13270
L9270 13370
L9270 13440
L9290 13530
L9310 13580
L9360 13630
L9430 13650
L9480 13650
L9550 13630
L9580 13600
L9580 13440
L9480 13440
" />
<path d="M9790 13650
L9790 13150
L9980 13150
L10030 13180
L10050 13200
L10080 13250
L10080 13320
L10050 13370
L10030 13390
L9980 13410
L9790 13410
" />
<path d="M10290 13650
L10290 13150
" />
<path d="M10620 13150
L10720 13150
L10770 13180
L10810 13220
L10840 13320
L10840 13480
L10810 13580
L10770 13630
L10720 13650
L10620 13650
L10580 13630
L10530 13580
L10500 13480
L10500 13320
L10530 13220
L10580 13180
L10620 13150
" />
<path d="M11310 13650
L11030 13650
" />
<path d="M11170 13650
L11170 13150
L11120 13220
L11080 13270
L11030 13290
" />
<path d="M11790 13650
L11500 13650
" />
<path d="M11650 13650
L11650 13150
L11600 13220
L11550 13270
L11500 13290
" />
</g>
<g style="fill:#840000; fill-opacity:0.0; 
stroke:#840000; stroke-width:60; stroke-opacity:1; 
stroke-linecap:round; stroke-linejoin:round;">
<text x="12620" y="13330"
textLength="1010" font-size="660" lengthAdjust="spacingAndGlyphs"
text-anchor="middle" opacity="0">15</text>
<path d="M12520 13300
L12230 13300
" />
<path d="M12380 13300
L12380 12800
L12330 12870
L12280 12920
L12230 12940
" />
<path d="M12970 12800
L12730 12800
L12710 13040
L12730 13020
L12780 12990
L12900 12990
L12950 13020
L12970 13040
L13000 13090
L13000 13210
L12970 13250
L12950 13280
L12900 13300
L12780 13300
L12730 13280
L12710 13250
" />
<path d="M12120 14430
L13120 14430
" />
</g>
<g style="fill:#008484; fill-opacity:0.0; 
stroke:#008484; stroke-width:60; stroke-opacity:1; 
stroke-linecap:round; stroke-linejoin:round;">
<text x="11920" y="14680"
textLength="2770" font-size="660" lengthAdjust="spacingAndGlyphs"
text-anchor="end" opacity="0">GPIO12</text>
<path d="M9550 14180
L9500 14150
L9430 14150
L9360 14180
L9310 14220
L9290 14270
L9270 14370
L9270 14440
L9290 14530
L9310 14580
L9360 14630
L9430 14650
L9480 14650
L9550 14630
L9580 14600
L9580 14440
L9480 14440
" />
<path d="M9790 14650
L9790 14150
L9980 14150
L10030 14180
L10050 14200
L10080 14250
L10080 14320
L10050 14370
L10030 14390
L9980 14410
L9790 14410
" />
<path d="M10290 14650
L10290 14150
" />
<path d="M10620 14150
L10720 14150
L10770 14180
L10810 14220
L10840 14320
L10840 14480
L10810 14580
L10770 14630
L10720 14650
L10620 14650
L10580 14630
L10530 14580
L10500 14480
L10500 14320
L10530 14220
L10580 14180
L10620 14150
" />
<path d="M11310 14650
L11030 14650
" />
<path d="M11170 14650
L11170 14150
L11120 14220
L11080 14270
L11030 14290
" />
<path d="M11500 14200
L11530 14180
L11580 14150
L11690 14150
L11740 14180
L11770 14200
L11790 14250
L11790 14290
L11770 14370
L11480 14650
L11790 14650
" />
</g>
<g style="fill:#840000; fill-opacity:0.0; 
stroke:#840000; stroke-width:60; stroke-opacity:1; 
stroke-linecap:round; stroke-linejoin:round;">
<text x="12620" y="14330"
textLength="1010" font-size="660" lengthAdjust="spacingAndGlyphs"
text-anchor="middle" opacity="0">16</text>
<path d="M12520 14300
L12230 14300
" />
<path d="M12380 14300
L12380 13800
L12330 13870
L12280 13920
L12230 13940
" />
<path d="M12950 13800
L12850 13800
L12810 13830
L12780 13850
L12730 13920
L12710 14020
L12710 14210
L12730 14250
L12760 14280
L12810 14300
L12900 14300
L12950 14280
L12970 14250
L13000 14210
L13000 14090
L12970 14040
L12950 14020
L12900 13990
L12810 13990
L12760 14020
L12730 14040
L12710 14090
" />
<path d="M12120 15430
L13120 15430
" />
</g>
<g style="fill:#008484; fill-opacity:0.0; 
stroke:#008484; stroke-width:60; stroke-opacity:1; 
stroke-linecap:round; stroke-linejoin:round;">
<text x="11920" y="15680"
textLength="2770" font-size="660" lengthAdjust="spacingAndGlyphs"
text-anchor="end" opacity="0">GPIO13</text>
<path d="M9550 15180
L9500 15150
L9430 15150
L9360 15180
L9310 15220
L9290 15270
L9270 15370
L9270 15440
L9290 15530
L9310 15580
L9360 15630
L9430 15650
L9480 15650
L9550 15630
L9580 15600
L9580 15440
L9480 15440
" />
<path d="M9790 15650
L9790 15150
L9980 15150
L10030 15180
L10050 15200
L10080 15250
L10080 15320
L10050 15370
L10030 15390
L9980 15410
L9790 15410
" />
<path d="M10290 15650
L10290 15150
" />
<path d="M10620 15150
L10720 15150
L10770 15180
L10810 15220
L10840 15320
L10840 15480
L10810 15580
L10770 15630
L10720 15650
L10620 15650
L10580 15630
L10530 15580
L10500 15480
L10500 15320
L10530 15220
L10580 15180
L10620 15150
" />
<path d="M11310 15650
L11030 15650
" />
<path d="M11170 15650
L11170 15150
L11120 15220
L11080 15270
L11030 15290
" />
<path d="M11480 15150
L11790 15150
L11620 15340
L11690 15340
L11740 15370
L11770 15390
L11790 15440
L11790 15560
L11770 15600
L11740 15630
L11690 15650
L11550 15650
L11500 15630
L11480 15600
" />
</g>
<g style="fill:#840000; fill-opacity:0.0; 
stroke:#840000; stroke-width:60; stroke-opacity:1; 
stroke-linecap:round; stroke-linejoin:round;">
<text x="12620" y="15330"
textLength="1010" font-size="660" lengthAdjust="spacingAndGlyphs"
text-anchor="middle" opacity="0">17</text>
<path d="M12520 15300
L12230 15300
" />
<path d="M12380 15300
L12380 14800
L12330 14870
L12280 14920
L12230 14940
" />
<path d="M12690 14800
L13020 14800
L12810 15300
" />
<path d="M2620 24430
L1620 24430
" />
</g>
<g style="fill:#008484; fill-opacity:0.0; 
stroke:#008484; stroke-width:60; stroke-opacity:1; 
stroke-linecap:round; stroke-linejoin:round;">
<text x="2820" y="24430"
textLength="60" font-size="0" lengthAdjust="spacingAndGlyphs"
text-anchor="start" opacity="0">GND</text>
</g>
<g style="fill:#008484; fill-opacity:0.0; 
stroke:#008484; stroke-width:0; stroke-opacity:1; 
stroke-linecap:round; stroke-linejoin:round;">
<path d="M2820 24430
L2820 24430
" />
<path d="M2820 24430
L2820 24430
" />
<path d="M2820 24430
L2820 24430
" />
</g>
<g style="fill:#008484; fill-opacity:0.0; 
stroke:#008484; stroke-width:60; stroke-opacity:1; 
stroke-linecap:round; stroke-linejoin:round;">
</g>
<g style="fill:#840000; fill-opacity:0.0; 
stroke:#840000; stroke-width:60; stroke-opacity:1; 
stroke-linecap:round; stroke-linejoin:round;">
<text x="2120" y="24360"
textLength="0" font-size="0" lengthAdjust="spacingAndGlyphs"
text-anchor="middle" opacity="0">18</text>
</g>
<g style="fill:#840000; fill-opacity:0.0; 
stroke:#840000; stroke-width:0; stroke-opacity:1; 
stroke-linecap:round; stroke-linejoin:round;">
<path d="M2120 24360
L2120 24360
" />
<path d="M2120 24360
L2120 24360
" />
<path d="M2120 24360
L2120 24360
" />
</g>
<g style="fill:#840000; fill-opacity:0.0; 
stroke:#840000; stroke-width:60; stroke-opacity:1; 
stroke-linecap:round; stroke-linejoin:round;">
<path d="M12120 16430
L13120 16430
" />
</g>
<g style="fill:#008484; fill-opacity:0.0; 
stroke:#008484; stroke-width:60; stroke-opacity:1; 
stroke-linecap:round; stroke-linejoin:round;">
<text x="11920" y="16680"
textLength="2710" font-size="660" lengthAdjust="spacingAndGlyphs"
text-anchor="end" opacity="0">GPIO14</text>
<path d="M9550 16180
L9500 16150
L9430 16150
L9360 16180
L9310 16220
L9290 16270
L9270 16370
L9270 16440
L9290 16530
L9310 16580
L9360 16630
L9430 16650
L9480 16650
L9550 16630
L9580 16600
L9580 16440
L9480 16440
" />
<path d="M9790 16650
L9790 16150
L9980 16150
L10030 16180
L10050 16200
L10080 16250
L10080 16320
L10050 16370
L10030 16390
L9980 16410
L9790 16410
" />
<path d="M10290 16650
L10290 16150
" />
<path d="M10620 16150
L10720 16150
L10770 16180
L10810 16220
L10840 16320
L10840 16480
L10810 16580
L10770 16630
L10720 16650
L10620 16650
L10580 16630
L10530 16580
L10500 16480
L10500 16320
L10530 16220
L10580 16180
L10620 16150
" />
<path d="M11310 16650
L11030 16650
" />
<path d="M11170 16650
L11170 16150
L11120 16220
L11080 16270
L11030 16290
" />
<path d="M11740 16320
L11740 16650
" />
<path d="M11620 16130
L11500 16480
L11810 16480
" />
</g>
<g style="fill:#840000; fill-opacity:0.0; 
stroke:#840000; stroke-width:60; stroke-opacity:1; 
stroke-linecap:round; stroke-linejoin:round;">
<text x="12620" y="16330"
textLength="1010" font-size="660" lengthAdjust="spacingAndGlyphs"
text-anchor="middle" opacity="0">19</text>
<path d="M12520 16300
L12230 16300
" />
<path d="M12380 16300
L12380 15800
L12330 15870
L12280 15920
L12230 15940
" />
<path d="M12760 16300
L12850 16300
L12900 16280
L12920 16250
L12970 16180
L13000 16090
L13000 15900
L12970 15850
L12950 15830
L12900 15800
L12810 15800
L12760 15830
L12730 15850
L12710 15900
L12710 16020
L12730 16060
L12760 16090
L12810 16110
L12900 16110
L12950 16090
L12970 16060
L13000 16020
" />
<path d="M12120 3430
L13120 3430
" />
</g>
<g style="fill:#008484; fill-opacity:0.0; 
stroke:#008484; stroke-width:60; stroke-opacity:1; 
stroke-linecap:round; stroke-linejoin:round;">
<text x="11920" y="3680"
textLength="2300" font-size="660" lengthAdjust="spacingAndGlyphs"
text-anchor="end" opacity="0">GPIO1</text>
<path d="M10030 3180
L9980 3150
L9910 3150
L9840 3180
L9790 3220
L9770 3270
L9740 3370
L9740 3440
L9770 3530
L9790 3580
L9840 3630
L9910 3650
L9960 3650
L10030 3630
L10050 3600
L10050 3440
L9960 3440
" />
<path d="M10270 3650
L10270 3150
L10460 3150
L10500 3180
L10530 3200
L10550 3250
L10550 3320
L10530 3370
L10500 3390
L10460 3410
L10270 3410
" />
<path d="M10770 3650
L10770 3150
" />
<path d="M11100 3150
L11190 3150
L11240 3180
L11290 3220
L11310 3320
L11310 3480
L11290 3580
L11240 3630
L11190 3650
L11100 3650
L11050 3630
L11000 3580
L10980 3480
L10980 3320
L11000 3220
L11050 3180
L11100 3150
" />
<path d="M11790 3650
L11500 3650
" />
<path d="M11650 3650
L11650 3150
L11600 3220
L11550 3270
L11500 3290
" />
</g>
<g style="fill:#840000; fill-opacity:0.0; 
stroke:#840000; stroke-width:60; stroke-opacity:1; 
stroke-linecap:round; stroke-linejoin:round;">
<text x="12620" y="3330"
textLength="540" font-size="660" lengthAdjust="spacingAndGlyphs"
text-anchor="middle" opacity="0">2</text>
<path d="M12470 2850
L12500 2830
L12540 2800
L12660 2800
L12710 2830
L12730 2850
L12760 2900
L12760 2940
L12730 3020
L12450 3300
L12760 3300
" />
<path d="M12120 17430
L13120 17430
" />
</g>
<g style="fill:#008484; fill-opacity:0.0; 
stroke:#008484; stroke-width:60; stroke-opacity:1; 
stroke-linecap:round; stroke-linejoin:round;">
<text x="11920" y="17680"
textLength="2770" font-size="660" lengthAdjust="spacingAndGlyphs"
text-anchor="end" opacity="0">GPIO15</text>
<path d="M9550 17180
L9500 17150
L9430 17150
L9360 17180
L9310 17220
L9290 17270
L9270 17370
L9270 17440
L9290 17530
L9310 17580
L9360 17630
L9430 17650
L9480 17650
L9550 17630
L9580 17600
L9580 17440
L9480 17440
" />
<path d="M9790 17650
L9790 17150
L9980 17150
L10030 17180
L10050 17200
L10080 17250
L10080 17320
L10050 17370
L10030 17390
L9980 17410
L9790 17410
" />
<path d="M10290 17650
L10290 17150
" />
<path d="M10620 17150
L10720 17150
L10770 17180
L10810 17220
L10840 17320
L10840 17480
L10810 17580
L10770 17630
L10720 17650
L10620 17650
L10580 17630
L10530 17580
L10500 17480
L10500 17320
L10530 17220
L10580 17180
L10620 17150
" />
<path d="M11310 17650
L11030 17650
" />
<path d="M11170 17650
L11170 17150
L11120 17220
L11080 17270
L11030 17290
" />
<path d="M11770 17150
L11530 17150
L11500 17390
L11530 17370
L11580 17340
L11690 17340
L11740 17370
L11770 17390
L11790 17440
L11790 17560
L11770 17600
L11740 17630
L11690 17650
L11580 17650
L11530 17630
L11500 17600
" />
</g>
<g style="fill:#840000; fill-opacity:0.0; 
stroke:#840000; stroke-width:60; stroke-opacity:1; 
stroke-linecap:round; stroke-linejoin:round;">
<text x="12620" y="17330"
textLength="1010" font-size="660" lengthAdjust="spacingAndGlyphs"
text-anchor="middle" opacity="0">20</text>
<path d="M12230 16850
L12260 16830
L12310 16800
L12420 16800
L12470 16830
L12500 16850
L12520 16900
L12520 16940
L12500 17020
L12210 17300
L12520 17300
" />
<path d="M12830 16800
L12880 16800
L12920 16830
L12950 16850
L12970 16900
L13000 16990
L13000 17110
L12970 17210
L12950 17250
L12920 17280
L12880 17300
L12830 17300
L12780 17280
L12760 17250
L12730 17210
L12710 17110
L12710 16990
L12730 16900
L12760 16850
L12780 16830
L12830 16800
" />
<path d="M12120 18430
L13120 18430
" />
</g>
<g style="fill:#008484; fill-opacity:0.0; 
stroke:#008484; stroke-width:60; stroke-opacity:1; 
stroke-linecap:round; stroke-linejoin:round;">
<text x="11920" y="18680"
textLength="2770" font-size="660" lengthAdjust="spacingAndGlyphs"
text-anchor="end" opacity="0">GPIO16</text>
<path d="M9550 18180
L9500 18150
L9430 18150
L9360 18180
L9310 18220
L9290 18270
L9270 18370
L9270 18440
L9290 18530
L9310 18580
L9360 18630
L9430 18650
L9480 18650
L9550 18630
L9580 18600
L9580 18440
L9480 18440
" />
<path d="M9790 18650
L9790 18150
L9980 18150
L10030 18180
L10050 18200
L10080 18250
L10080 18320
L10050 18370
L10030 18390
L9980 18410
L9790 18410
" />
<path d="M10290 18650
L10290 18150
" />
<path d="M10620 18150
L10720 18150
L10770 18180
L10810 18220
L10840 18320
L10840 18480
L10810 18580
L10770 18630
L10720 18650
L10620 18650
L10580 18630
L10530 18580
L10500 18480
L10500 18320
L10530 18220
L10580 18180
L10620 18150
" />
<path d="M11310 18650
L11030 18650
" />
<path d="M11170 18650
L11170 18150
L11120 18220
L11080 18270
L11030 18290
" />
<path d="M11740 18150
L11650 18150
L11600 18180
L11580 18200
L11530 18270
L11500 18370
L11500 18560
L11530 18600
L11550 18630
L11600 18650
L11690 18650
L11740 18630
L11770 18600
L11790 18560
L11790 18440
L11770 18390
L11740 18370
L11690 18340
L11600 18340
L11550 18370
L11530 18390
L11500 18440
" />
</g>
<g style="fill:#840000; fill-opacity:0.0; 
stroke:#840000; stroke-width:60; stroke-opacity:1; 
stroke-linecap:round; stroke-linejoin:round;">
<text x="12620" y="18330"
textLength="1010" font-size="660" lengthAdjust="spacingAndGlyphs"
text-anchor="middle" opacity="0">21</text>
<path d="M12230 17850
L12260 17830
L12310 17800
L12420 17800
L12470 17830
L12500 17850
L12520 17900
L12520 17940
L12500 18020
L12210 18300
L12520 18300
" />
<path d="M13000 18300
L12710 18300
" />
<path d="M12850 18300
L12850 17800
L12810 17870
L12760 17920
L12710 17940
" />
<path d="M12120 19430
L13120 19430
" />
</g>
<g style="fill:#008484; fill-opacity:0.0; 
stroke:#008484; stroke-width:60; stroke-opacity:1; 
stroke-linecap:round; stroke-linejoin:round;">
<text x="11920" y="19680"
textLength="2770" font-size="660" lengthAdjust="spacingAndGlyphs"
text-anchor="end" opacity="0">GPIO17</text>
<path d="M9550 19180
L9500 19150
L9430 19150
L9360 19180
L9310 19220
L9290 19270
L9270 19370
L9270 19440
L9290 19530
L9310 19580
L9360 19630
L9430 19650
L9480 19650
L9550 19630
L9580 19600
L9580 19440
L9480 19440
" />
<path d="M9790 19650
L9790 19150
L9980 19150
L10030 19180
L10050 19200
L10080 19250
L10080 19320
L10050 19370
L10030 19390
L9980 19410
L9790 19410
" />
<path d="M10290 19650
L10290 19150
" />
<path d="M10620 19150
L10720 19150
L10770 19180
L10810 19220
L10840 19320
L10840 19480
L10810 19580
L10770 19630
L10720 19650
L10620 19650
L10580 19630
L10530 19580
L10500 19480
L10500 19320
L10530 19220
L10580 19180
L10620 19150
" />
<path d="M11310 19650
L11030 19650
" />
<path d="M11170 19650
L11170 19150
L11120 19220
L11080 19270
L11030 19290
" />
<path d="M11480 19150
L11810 19150
L11600 19650
" />
</g>
<g style="fill:#840000; fill-opacity:0.0; 
stroke:#840000; stroke-width:60; stroke-opacity:1; 
stroke-linecap:round; stroke-linejoin:round;">
<text x="12620" y="19330"
textLength="1010" font-size="660" lengthAdjust="spacingAndGlyphs"
text-anchor="middle" opacity="0">22</text>
<path d="M12230 18850
L12260 18830
L12310 18800
L12420 18800
L12470 18830
L12500 18850
L12520 18900
L12520 18940
L12500 19020
L12210 19300
L12520 19300
" />
<path d="M12710 18850
L12730 18830
L12780 18800
L12900 18800
L12950 18830
L12970 18850
L13000 18900
L13000 18940
L12970 19020
L12690 19300
L13000 19300
" />
<path d="M2620 24430
L1620 24430
" />
</g>
<g style="fill:#008484; fill-opacity:0.0; 
stroke:#008484; stroke-width:60; stroke-opacity:1; 
stroke-linecap:round; stroke-linejoin:round;">
<text x="2820" y="24430"
textLength="60" font-size="0" lengthAdjust="spacingAndGlyphs"
text-anchor="start" opacity="0">GND</text>
</g>
<g style="fill:#008484; fill-opacity:0.0; 
stroke:#008484; stroke-width:0; stroke-opacity:1; 
stroke-linecap:round; stroke-linejoin:round;">
<path d="M2820 24430
L2820 24430
" />
<path d="M2820 24430
L2820 24430
" />
<path d="M2820 24430
L2820 24430
" />
</g>
<g style="fill:#008484; fill-opacity:0.0; 
stroke:#008484; stroke-width:60; stroke-opacity:1; 
stroke-linecap:round; stroke-linejoin:round;">
</g>
<g style="fill:#840000; fill-opacity:0.0; 
stroke:#840000; stroke-width:60; stroke-opacity:1; 
stroke-linecap:round; stroke-linejoin:round;">
<text x="2120" y="24360"
textLength="0" font-size="0" lengthAdjust="spacingAndGlyphs"
text-anchor="middle" opacity="0">23</text>
</g>
<g style="fill:#840000; fill-opacity:0.0; 
stroke:#840000; stroke-width:0; stroke-opacity:1; 
stroke-linecap:round; stroke-linejoin:round;">
<path d="M2120 24360
L2120 24360
" />
<path d="M2120 24360
L2120 24360
" />
</g>
<g style="fill:#840000; fill-opacity:0.0; 
stroke:#840000; stroke-width:60; stroke-opacity:1; 
stroke-linecap:round; stroke-linejoin:round;">
<path d="M12120 20430
L13120 20430
" />
</g>
<g style="fill:#008484; fill-opacity:0.0; 
stroke:#008484; stroke-width:60; stroke-opacity:1; 
stroke-linecap:round; stroke-linejoin:round;">
<text x="11920" y="20680"
textLength="2710" font-size="660" lengthAdjust="spacingAndGlyphs"
text-anchor="end" opacity="0">GPIO18</text>
<path d="M9550 20180
L9500 20150
L9430 20150
L9360 20180
L9310 20220
L9290 20270
L9270 20370
L9270 20440
L9290 20530
L9310 20580
L9360 20630
L9430 20650
L9480 20650
L9550 20630
L9580 20600
L9580 20440
L9480 20440
" />
<path d="M9790 20650
L9790 20150
L9980 20150
L10030 20180
L10050 20200
L10080 20250
L10080 20320
L10050 20370
L10030 20390
L9980 20410
L9790 20410
" />
<path d="M10290 20650
L10290 20150
" />
<path d="M10620 20150
L10720 20150
L10770 20180
L10810 20220
L10840 20320
L10840 20480
L10810 20580
L10770 20630
L10720 20650
L10620 20650
L10580 20630
L10530 20580
L10500 20480
L10500 20320
L10530 20220
L10580 20180
L10620 20150
" />
<path d="M11310 20650
L11030 20650
" />
<path d="M11170 20650
L11170 20150
L11120 20220
L11080 20270
L11030 20290
" />
<path d="M11600 20370
L11550 20340
L11530 20320
L11500 20270
L11500 20250
L11530 20200
L11550 20180
L11600 20150
L11690 20150
L11740 20180
L11770 20200
L11790 20250
L11790 20270
L11770 20320
L11740 20340
L11690 20370
L11600 20370
L11550 20390
L11530 20410
L11500 20460
L11500 20560
L11530 20600
L11550 20630
L11600 20650
L11690 20650
L11740 20630
L11770 20600
L11790 20560
L11790 20460
L11770 20410
L11740 20390
L11690 20370
" />
</g>
<g style="fill:#840000; fill-opacity:0.0; 
stroke:#840000; stroke-width:60; stroke-opacity:1; 
stroke-linecap:round; stroke-linejoin:round;">
<text x="12620" y="20330"
textLength="1010" font-size="660" lengthAdjust="spacingAndGlyphs"
text-anchor="middle" opacity="0">24</text>
<path d="M12230 19850
L12260 19830
L12310 19800
L12420 19800
L12470 19830
L12500 19850
L12520 19900
L12520 19940
L12500 20020
L12210 20300
L12520 20300
" />
<path d="M12950 19970
L12950 20300
" />
<path d="M12830 19780
L12710 20130
L13020 20130
" />
<path d="M12120 21430
L13120 21430
" />
</g>
<g style="fill:#008484; fill-opacity:0.0; 
stroke:#008484; stroke-width:60; stroke-opacity:1; 
stroke-linecap:round; stroke-linejoin:round;">
<text x="11920" y="21680"
textLength="2770" font-size="660" lengthAdjust="spacingAndGlyphs"
text-anchor="end" opacity="0">GPIO19</text>
<path d="M9550 21180
L9500 21150
L9430 21150
L9360 21180
L9310 21220
L9290 21270
L9270 21370
L9270 21440
L9290 21530
L9310 21580
L9360 21630
L9430 21650
L9480 21650
L9550 21630
L9580 21600
L9580 21440
L9480 21440
" />
<path d="M9790 21650
L9790 21150
L9980 21150
L10030 21180
L10050 21200
L10080 21250
L10080 21320
L10050 21370
L10030 21390
L9980 21410
L9790 21410
" />
<path d="M10290 21650
L10290 21150
" />
<path d="M10620 21150
L10720 21150
L10770 21180
L10810 21220
L10840 21320
L10840 21480
L10810 21580
L10770 21630
L10720 21650
L10620 21650
L10580 21630
L10530 21580
L10500 21480
L10500 21320
L10530 21220
L10580 21180
L10620 21150
" />
<path d="M11310 21650
L11030 21650
" />
<path d="M11170 21650
L11170 21150
L11120 21220
L11080 21270
L11030 21290
" />
<path d="M11550 21650
L11650 21650
L11690 21630
L11720 21600
L11770 21530
L11790 21440
L11790 21250
L11770 21200
L11740 21180
L11690 21150
L11600 21150
L11550 21180
L11530 21200
L11500 21250
L11500 21370
L11530 21410
L11550 21440
L11600 21460
L11690 21460
L11740 21440
L11770 21410
L11790 21370
" />
</g>
<g style="fill:#840000; fill-opacity:0.0; 
stroke:#840000; stroke-width:60; stroke-opacity:1; 
stroke-linecap:round; stroke-linejoin:round;">
<text x="12620" y="21330"
textLength="1010" font-size="660" lengthAdjust="spacingAndGlyphs"
text-anchor="middle" opacity="0">25</text>
<path d="M12230 20850
L12260 20830
L12310 20800
L12420 20800
L12470 20830
L12500 20850
L12520 20900
L12520 20940
L12500 21020
L12210 21300
L12520 21300
" />
<path d="M12970 20800
L12730 20800
L12710 21040
L12730 21020
L12780 20990
L12900 20990
L12950 21020
L12970 21040
L13000 21090
L13000 21210
L12970 21250
L12950 21280
L12900 21300
L12780 21300
L12730 21280
L12710 21250
" />
<path d="M12120 22430
L13120 22430
" />
</g>
<g style="fill:#008484; fill-opacity:0.0; 
stroke:#008484; stroke-width:60; stroke-opacity:1; 
stroke-linecap:round; stroke-linejoin:round;">
<text x="11920" y="22680"
textLength="2770" font-size="660" lengthAdjust="spacingAndGlyphs"
text-anchor="end" opacity="0">GPIO20</text>
<path d="M9550 22180
L9500 22150
L9430 22150
L9360 22180
L9310 22220
L9290 22270
L9270 22370
L9270 22440
L9290 22530
L9310 22580
L9360 22630
L9430 22650
L9480 22650
L9550 22630
L9580 22600
L9580 22440
L9480 22440
" />
<path d="M9790 22650
L9790 22150
L9980 22150
L10030 22180
L10050 22200
L10080 22250
L10080 22320
L10050 22370
L10030 22390
L9980 22410
L9790 22410
" />
<path d="M10290 22650
L10290 22150
" />
<path d="M10620 22150
L10720 22150
L10770 22180
L10810 22220
L10840 22320
L10840 22480
L10810 22580
L10770 22630
L10720 22650
L10620 22650
L10580 22630
L10530 22580
L10500 22480
L10500 22320
L10530 22220
L10580 22180
L10620 22150
" />
<path d="M11030 22200
L11050 22180
L11100 22150
L11220 22150
L11270 22180
L11290 22200
L11310 22250
L11310 22290
L11290 22370
L11000 22650
L11310 22650
" />
<path d="M11620 22150
L11670 22150
L11720 22180
L11740 22200
L11770 22250
L11790 22340
L11790 22460
L11770 22560
L11740 22600
L11720 22630
L11670 22650
L11620 22650
L11580 22630
L11550 22600
L11530 22560
L11500 22460
L11500 22340
L11530 22250
L11550 22200
L11580 22180
L11620 22150
" />
</g>
<g style="fill:#840000; fill-opacity:0.0; 
stroke:#840000; stroke-width:60; stroke-opacity:1; 
stroke-linecap:round; stroke-linejoin:round;">
<text x="12620" y="22330"
textLength="1010" font-size="660" lengthAdjust="spacingAndGlyphs"
text-anchor="middle" opacity="0">26</text>
<path d="M12230 21850
L12260 21830
L12310 21800
L12420 21800
L12470 21830
L12500 21850
L12520 21900
L12520 21940
L12500 22020
L12210 22300
L12520 22300
" />
<path d="M12950 21800
L12850 21800
L12810 21830
L12780 21850
L12730 21920
L12710 22020
L12710 22210
L12730 22250
L12760 22280
L12810 22300
L12900 22300
L12950 22280
L12970 22250
L13000 22210
L13000 22090
L12970 22040
L12950 22020
L12900 21990
L12810 21990
L12760 22020
L12730 22040
L12710 22090
" />
<path d="M12120 23430
L13120 23430
" />
</g>
<g style="fill:#008484; fill-opacity:0.0; 
stroke:#008484; stroke-width:60; stroke-opacity:1; 
stroke-linecap:round; stroke-linejoin:round;">
<text x="11920" y="23680"
textLength="2770" font-size="660" lengthAdjust="spacingAndGlyphs"
text-anchor="end" opacity="0">GPIO21</text>
<path d="M9550 23180
L9500 23150
L9430 23150
L9360 23180
L9310 23220
L9290 23270
L9270 23370
L9270 23440
L9290 23530
L9310 23580
L9360 23630
L9430 23650
L9480 23650
L9550 23630
L9580 23600
L9580 23440
L9480 23440
" />
<path d="M9790 23650
L9790 23150
L9980 23150
L10030 23180
L10050 23200
L10080 23250
L10080 23320
L10050 23370
L10030 23390
L9980 23410
L9790 23410
" />
<path d="M10290 23650
L10290 23150
" />
<path d="M10620 23150
L10720 23150
L10770 23180
L10810 23220
L10840 23320
L10840 23480
L10810 23580
L10770 23630
L10720 23650
L10620 23650
L10580 23630
L10530 23580
L10500 23480
L10500 23320
L10530 23220
L10580 23180
L10620 23150
" />
<path d="M11030 23200
L11050 23180
L11100 23150
L11220 23150
L11270 23180
L11290 23200
L11310 23250
L11310 23290
L11290 23370
L11000 23650
L11310 23650
" />
<path d="M11790 23650
L11500 23650
" />
<path d="M11650 23650
L11650 23150
L11600 23220
L11550 23270
L11500 23290
" />
</g>
<g style="fill:#840000; fill-opacity:0.0; 
stroke:#840000; stroke-width:60; stroke-opacity:1; 
stroke-linecap:round; stroke-linejoin:round;">
<text x="12620" y="23330"
textLength="1010" font-size="660" lengthAdjust="spacingAndGlyphs"
text-anchor="middle" opacity="0">27</text>
<path d="M12230 22850
L12260 22830
L12310 22800
L12420 22800
L12470 22830
L12500 22850
L12520 22900
L12520 22940
L12500 23020
L12210 23300
L12520 23300
" />
<path d="M12690 22800
L13020 22800
L12810 23300
" />
<path d="M2620 24430
L1620 24430
" />
</g>
<g style="fill:#008484; fill-opacity:0.0; 
stroke:#008484; stroke-width:60; stroke-opacity:1; 
stroke-linecap:round; stroke-linejoin:round;">
<text x="2820" y="24430"
textLength="60" font-size="0" lengthAdjust="spacingAndGlyphs"
text-anchor="start" opacity="0">GND</text>
</g>
<g style="fill:#008484; fill-opacity:0.0; 
stroke:#008484; stroke-width:0; stroke-opacity:1; 
stroke-linecap:round; stroke-linejoin:round;">
<path d="M2820 24430
L2820 24430
" />
<path d="M2820 24430
L2820 24430
" />
<path d="M2820 24430
L2820 24430
" />
</g>
<g style="fill:#008484; fill-opacity:0.0; 
stroke:#008484; stroke-width:60; stroke-opacity:1; 
stroke-linecap:round; stroke-linejoin:round;">
</g>
<g style="fill:#840000; fill-opacity:0.0; 
stroke:#840000; stroke-width:60; stroke-opacity:1; 
stroke-linecap:round; stroke-linejoin:round;">
<text x="2120" y="24360"
textLength="0" font-size="0" lengthAdjust="spacingAndGlyphs"
text-anchor="middle" opacity="0">28</text>
</g>
<g style="fill:#840000; fill-opacity:0.0; 
stroke:#840000; stroke-width:0; stroke-opacity:1; 
stroke-linecap:round; stroke-linejoin:round;">
<path d="M2120 24360
L2120 24360
" />
<path d="M2120 24360
L2120 24360
" />
</g>
<g style="fill:#840000; fill-opacity:0.0; 
stroke:#840000; stroke-width:60; stroke-opacity:1; 
stroke-linecap:round; stroke-linejoin:round;">
<path d="M12120 24430
L13120 24430
" />
</g>
<g style="fill:#008484; fill-opacity:0.0; 
stroke:#008484; stroke-width:60; stroke-opacity:1; 
stroke-linecap:round; stroke-linejoin:round;">
<text x="11920" y="24680"
textLength="2710" font-size="660" lengthAdjust="spacingAndGlyphs"
text-anchor="end" opacity="0">GPIO22</text>
<path d="M9550 24180
L9500 24150
L9430 24150
L9360 24180
L9310 24220
L9290 24270
L9270 24370
L9270 24440
L9290 24530
L9310 24580
L9360 24630
L9430 24650
L9480 24650
L9550 24630
L9580 24600
L9580 24440
L9480 24440
" />
<path d="M9790 24650
L9790 24150
L9980 24150
L10030 24180
L10050 24200
L10080 24250
L10080 24320
L10050 24370
L10030 24390
L9980 24410
L9790 24410
" />
<path d="M10290 24650
L10290 24150
" />
<path d="M10620 24150
L10720 24150
L10770 24180
L10810 24220
L10840 24320
L10840 24480
L10810 24580
L10770 24630
L10720 24650
L10620 24650
L10580 24630
L10530 24580
L10500 24480
L10500 24320
L10530 24220
L10580 24180
L10620 24150
" />
<path d="M11030 24200
L11050 24180
L11100 24150
L11220 24150
L11270 24180
L11290 24200
L11310 24250
L11310 24290
L11290 24370
L11000 24650
L11310 24650
" />
<path d="M11500 24200
L11530 24180
L11580 24150
L11690 24150
L11740 24180
L11770 24200
L11790 24250
L11790 24290
L11770 24370
L11480 24650
L11790 24650
" />
</g>
<g style="fill:#840000; fill-opacity:0.0; 
stroke:#840000; stroke-width:60; stroke-opacity:1; 
stroke-linecap:round; stroke-linejoin:round;">
<text x="12620" y="24330"
textLength="1010" font-size="660" lengthAdjust="spacingAndGlyphs"
text-anchor="middle" opacity="0">29</text>
<path d="M12230 23850
L12260 23830
L12310 23800
L12420 23800
L12470 23830
L12500 23850
L12520 23900
L12520 23940
L12500 24020
L12210 24300
L12520 24300
" />
<path d="M12760 24300
L12850 24300
L12900 24280
L12920 24250
L12970 24180
L13000 24090
L13000 23900
L12970 23850
L12950 23830
L12900 23800
L12810 23800
L12760 23830
L12730 23850
L12710 23900
L12710 24020
L12730 24060
L12760 24090
L12810 24110
L12900 24110
L12950 24090
L12970 24060
L13000 24020
" />
<path d="M2620 24430
L1620 24430
" />
</g>
<g style="fill:#008484; fill-opacity:0.0; 
stroke:#008484; stroke-width:60; stroke-opacity:1; 
stroke-linecap:round; stroke-linejoin:round;">
<text x="2820" y="24680"
textLength="1580" font-size="660" lengthAdjust="spacingAndGlyphs"
text-anchor="start" opacity="0">GND</text>
<path d="M3230 24180
L3180 24150
L3110 24150
L3040 24180
L2990 24220
L2960 24270
L2940 24370
L2940 24440
L2960 24530
L2990 24580
L3040 24630
L3110 24650
L3150 24650
L3230 24630
L3250 24600
L3250 24440
L3150 24440
" />
<path d="M3460 24650
L3460 24150
L3750 24650
L3750 24150
" />
<path d="M3990 24650
L3990 24150
L4110 24150
L4180 24180
L4230 24220
L4250 24270
L4270 24370
L4270 24440
L4250 24530
L4230 24580
L4180 24630
L4110 24650
L3990 24650
" />
</g>
<g style="fill:#840000; fill-opacity:0.0; 
stroke:#840000; stroke-width:60; stroke-opacity:1; 
stroke-linecap:round; stroke-linejoin:round;">
<text x="2120" y="24360"
textLength="60" font-size="0" lengthAdjust="spacingAndGlyphs"
text-anchor="middle" opacity="0">3</text>
</g>
<g style="fill:#840000; fill-opacity:0.0; 
stroke:#840000; stroke-width:0; stroke-opacity:1; 
stroke-linecap:round; stroke-linejoin:round;">
<path d="M2120 24360
L2120 24360
" />
</g>
<g style="fill:#840000; fill-opacity:0.0; 
stroke:#840000; stroke-width:60; stroke-opacity:1; 
stroke-linecap:round; stroke-linejoin:round;">
<path d="M2620 7430
L1620 7430
" />
</g>
<g style="fill:#008484; fill-opacity:0.0; 
stroke:#008484; stroke-width:60; stroke-opacity:1; 
stroke-linecap:round; stroke-linejoin:round;">
<text x="2820" y="7680"
textLength="1550" font-size="660" lengthAdjust="spacingAndGlyphs"
text-anchor="start" opacity="0">RUN</text>
<path d="M3250 7650
L3080 7410
" />
<path d="M2960 7650
L2960 7150
L3150 7150
L3200 7180
L3230 7200
L3250 7250
L3250 7320
L3230 7370
L3200 7390
L3150 7410
L2960 7410
" />
<path d="M3460 7150
L3460 7560
L3490 7600
L3510 7630
L3560 7650
L3650 7650
L3700 7630
L3730 7600
L3750 7560
L3750 7150
" />
<path d="M3990 7650
L3990 7150
L4270 7650
L4270 7150
" />
</g>
<g style="fill:#840000; fill-opacity:0.0; 
stroke:#840000; stroke-width:60; stroke-opacity:1; 
stroke-linecap:round; stroke-linejoin:round;">
<text x="2120" y="7330"
textLength="1010" font-size="660" lengthAdjust="spacingAndGlyphs"
text-anchor="middle" opacity="0">30</text>
<path d="M1710 6800
L2020 6800
L1850 6990
L1920 6990
L1970 7020
L2000 7040
L2020 7090
L2020 7210
L2000 7250
L1970 7280
L1920 7300
L1780 7300
L1730 7280
L1710 7250
" />
<path d="M2330 6800
L2380 6800
L2420 6830
L2450 6850
L2470 6900
L2500 6990
L2500 7110
L2470 7210
L2450 7250
L2420 7280
L2380 7300
L2330 7300
L2280 7280
L2260 7250
L2230 7210
L2210 7110
L2210 6990
L2230 6900
L2260 6850
L2280 6830
L2330 6800
" />
<path d="M2620 12430
L1620 12430
" />
</g>
<g style="fill:#008484; fill-opacity:0.0; 
stroke:#008484; stroke-width:60; stroke-opacity:1; 
stroke-linecap:round; stroke-linejoin:round;">
<text x="2820" y="12680"
textLength="5060" font-size="660" lengthAdjust="spacingAndGlyphs"
text-anchor="start" opacity="0">GPIO26_ADC0</text>
<path d="M3230 12180
L3180 12150
L3110 12150
L3040 12180
L2990 12220
L2960 12270
L2940 12370
L2940 12440
L2960 12530
L2990 12580
L3040 12630
L3110 12650
L3150 12650
L3230 12630
L3250 12600
L3250 12440
L3150 12440
" />
<path d="M3460 12650
L3460 12150
L3650 12150
L3700 12180
L3730 12200
L3750 12250
L3750 12320
L3730 12370
L3700 12390
L3650 12410
L3460 12410
" />
<path d="M3960 12650
L3960 12150
" />
<path d="M4300 12150
L4390 12150
L4440 12180
L4490 12220
L4510 12320
L4510 12480
L4490 12580
L4440 12630
L4390 12650
L4300 12650
L4250 12630
L4200 12580
L4180 12480
L4180 12320
L4200 12220
L4250 12180
L4300 12150
" />
<path d="M4700 12200
L4730 12180
L4770 12150
L4890 12150
L4940 12180
L4960 12200
L4990 12250
L4990 12290
L4960 12370
L4680 12650
L4990 12650
" />
<path d="M5420 12150
L5320 12150
L5270 12180
L5250 12200
L5200 12270
L5180 12370
L5180 12560
L5200 12600
L5230 12630
L5270 12650
L5370 12650
L5420 12630
L5440 12600
L5460 12560
L5460 12440
L5440 12390
L5420 12370
L5370 12340
L5270 12340
L5230 12370
L5200 12390
L5180 12440
" />
<path d="M5560 12700
L5940 12700
" />
<path d="M6040 12510
L6270 12510
" />
<path d="M5990 12650
L6150 12150
L6320 12650
" />
<path d="M6490 12650
L6490 12150
L6610 12150
L6680 12180
L6730 12220
L6750 12270
L6770 12370
L6770 12440
L6750 12530
L6730 12580
L6680 12630
L6610 12650
L6490 12650
" />
<path d="M7270 12600
L7250 12630
L7180 12650
L7130 12650
L7060 12630
L7010 12580
L6990 12530
L6960 12440
L6960 12370
L6990 12270
L7010 12220
L7060 12180
L7130 12150
L7180 12150
L7250 12180
L7270 12200
" />
<path d="M7580 12150
L7630 12150
L7680 12180
L7700 12200
L7730 12250
L7750 12340
L7750 12460
L7730 12560
L7700 12600
L7680 12630
L7630 12650
L7580 12650
L7540 12630
L7510 12600
L7490 12560
L7460 12460
L7460 12340
L7490 12250
L7510 12200
L7540 12180
L7580 12150
" />
</g>
<g style="fill:#840000; fill-opacity:0.0; 
stroke:#840000; stroke-width:60; stroke-opacity:1; 
stroke-linecap:round; stroke-linejoin:round;">
<text x="2120" y="12330"
textLength="1010" font-size="660" lengthAdjust="spacingAndGlyphs"
text-anchor="middle" opacity="0">31</text>
<path d="M1710 11800
L2020 11800
L1850 11990
L1920 11990
L1970 12020
L2000 12040
L2020 12090
L2020 12210
L2000 12250
L1970 12280
L1920 12300
L1780 12300
L1730 12280
L1710 12250
" />
<path d="M2500 12300
L2210 12300
" />
<path d="M2350 12300
L2350 11800
L2310 11870
L2260 11920
L2210 11940
" />
<path d="M2620 13430
L1620 13430
" />
</g>
<g style="fill:#008484; fill-opacity:0.0; 
stroke:#008484; stroke-width:60; stroke-opacity:1; 
stroke-linecap:round; stroke-linejoin:round;">
<text x="2820" y="13680"
textLength="5060" font-size="660" lengthAdjust="spacingAndGlyphs"
text-anchor="start" opacity="0">GPIO27_ADC1</text>
<path d="M3230 13180
L3180 13150
L3110 13150
L3040 13180
L2990 13220
L2960 13270
L2940 13370
L2940 13440
L2960 13530
L2990 13580
L3040 13630
L3110 13650
L3150 13650
L3230 13630
L3250 13600
L3250 13440
L3150 13440
" />
<path d="M3460 13650
L3460 13150
L3650 13150
L3700 13180
L3730 13200
L3750 13250
L3750 13320
L3730 13370
L3700 13390
L3650 13410
L3460 13410
" />
<path d="M3960 13650
L3960 13150
" />
<path d="M4300 13150
L4390 13150
L4440 13180
L4490 13220
L4510 13320
L4510 13480
L4490 13580
L4440 13630
L4390 13650
L4300 13650
L4250 13630
L4200 13580
L4180 13480
L4180 13320
L4200 13220
L4250 13180
L4300 13150
" />
<path d="M4700 13200
L4730 13180
L4770 13150
L4890 13150
L4940 13180
L4960 13200
L4990 13250
L4990 13290
L4960 13370
L4680 13650
L4990 13650
" />
<path d="M5150 13150
L5490 13150
L5270 13650
" />
<path d="M5560 13700
L5940 13700
" />
<path d="M6040 13510
L6270 13510
" />
<path d="M5990 13650
L6150 13150
L6320 13650
" />
<path d="M6490 13650
L6490 13150
L6610 13150
L6680 13180
L6730 13220
L6750 13270
L6770 13370
L6770 13440
L6750 13530
L6730 13580
L6680 13630
L6610 13650
L6490 13650
" />
<path d="M7270 13600
L7250 13630
L7180 13650
L7130 13650
L7060 13630
L7010 13580
L6990 13530
L6960 13440
L6960 13370
L6990 13270
L7010 13220
L7060 13180
L7130 13150
L7180 13150
L7250 13180
L7270 13200
" />
<path d="M7750 13650
L7460 13650
" />
<path d="M7610 13650
L7610 13150
L7560 13220
L7510 13270
L7460 13290
" />
</g>
<g style="fill:#840000; fill-opacity:0.0; 
stroke:#840000; stroke-width:60; stroke-opacity:1; 
stroke-linecap:round; stroke-linejoin:round;">
<text x="2120" y="13330"
textLength="1010" font-size="660" lengthAdjust="spacingAndGlyphs"
text-anchor="middle" opacity="0">32</text>
<path d="M1710 12800
L2020 12800
L1850 12990
L1920 12990
L1970 13020
L2000 13040
L2020 13090
L2020 13210
L2000 13250
L1970 13280
L1920 13300
L1780 13300
L1730 13280
L1710 13250
" />
<path d="M2210 12850
L2230 12830
L2280 12800
L2400 12800
L2450 12830
L2470 12850
L2500 12900
L2500 12940
L2470 13020
L2190 13300
L2500 13300
" />
<path d="M2620 15930
L1620 15930
" />
</g>
<g style="fill:#008484; fill-opacity:0.0; 
stroke:#008484; stroke-width:60; stroke-opacity:1; 
stroke-linecap:round; stroke-linejoin:round;">
<text x="2820" y="16180"
textLength="2010" font-size="660" lengthAdjust="spacingAndGlyphs"
text-anchor="start" opacity="0">AGND</text>
<path d="M2940 16010
L3180 16010
" />
<path d="M2890 16150
L3060 15650
L3230 16150
" />
<path d="M3650 15680
L3610 15650
L3540 15650
L3460 15680
L3420 15720
L3390 15770
L3370 15870
L3370 15940
L3390 16030
L3420 16080
L3460 16130
L3540 16150
L3580 16150
L3650 16130
L3680 16100
L3680 15940
L3580 15940
" />
<path d="M3890 16150
L3890 15650
L4180 16150
L4180 15650
" />
<path d="M4420 16150
L4420 15650
L4540 15650
L4610 15680
L4650 15720
L4680 15770
L4700 15870
L4700 15940
L4680 16030
L4650 16080
L4610 16130
L4540 16150
L4420 16150
" />
</g>
<g style="fill:#840000; fill-opacity:0.0; 
stroke:#840000; stroke-width:60; stroke-opacity:1; 
stroke-linecap:round; stroke-linejoin:round;">
<text x="2120" y="15830"
textLength="1010" font-size="660" lengthAdjust="spacingAndGlyphs"
text-anchor="middle" opacity="0">33</text>
<path d="M1710 15300
L2020 15300
L1850 15490
L1920 15490
L1970 15520
L2000 15540
L2020 15590
L2020 15710
L2000 15750
L1970 15780
L1920 15800
L1780 15800
L1730 15780
L1710 15750
" />
<path d="M2190 15300
L2500 15300
L2330 15490
L2400 15490
L2450 15520
L2470 15540
L2500 15590
L2500 15710
L2470 15750
L2450 15780
L2400 15800
L2260 15800
L2210 15780
L2190 15750
" />
<path d="M2620 14430
L1620 14430
" />
</g>
<g style="fill:#008484; fill-opacity:0.0; 
stroke:#008484; stroke-width:60; stroke-opacity:1; 
stroke-linecap:round; stroke-linejoin:round;">
<text x="2820" y="14680"
textLength="5060" font-size="660" lengthAdjust="spacingAndGlyphs"
text-anchor="start" opacity="0">GPIO28_ADC2</text>
<path d="M3230 14180
L3180 14150
L3110 14150
L3040 14180
L2990 14220
L2960 14270
L2940 14370
L2940 14440
L2960 14530
L2990 14580
L3040 14630
L3110 14650
L3150 14650
L3230 14630
L3250 14600
L3250 14440
L3150 14440
" />
<path d="M3460 14650
L3460 14150
L3650 14150
L3700 14180
L3730 14200
L3750 14250
L3750 14320
L3730 14370
L3700 14390
L3650 14410
L3460 14410
" />
<path d="M3960 14650
L3960 14150
" />
<path d="M4300 14150
L4390 14150
L4440 14180
L4490 14220
L4510 14320
L4510 14480
L4490 14580
L4440 14630
L4390 14650
L4300 14650
L4250 14630
L4200 14580
L4180 14480
L4180 14320
L4200 14220
L4250 14180
L4300 14150
" />
<path d="M4700 14200
L4730 14180
L4770 14150
L4890 14150
L4940 14180
L4960 14200
L4990 14250
L4990 14290
L4960 14370
L4680 14650
L4990 14650
" />
<path d="M5270 14370
L5230 14340
L5200 14320
L5180 14270
L5180 14250
L5200 14200
L5230 14180
L5270 14150
L5370 14150
L5420 14180
L5440 14200
L5460 14250
L5460 14270
L5440 14320
L5420 14340
L5370 14370
L5270 14370
L5230 14390
L5200 14410
L5180 14460
L5180 14560
L5200 14600
L5230 14630
L5270 14650
L5370 14650
L5420 14630
L5440 14600
L5460 14560
L5460 14460
L5440 14410
L5420 14390
L5370 14370
" />
<path d="M5560 14700
L5940 14700
" />
<path d="M6040 14510
L6270 14510
" />
<path d="M5990 14650
L6150 14150
L6320 14650
" />
<path d="M6490 14650
L6490 14150
L6610 14150
L6680 14180
L6730 14220
L6750 14270
L6770 14370
L6770 14440
L6750 14530
L6730 14580
L6680 14630
L6610 14650
L6490 14650
" />
<path d="M7270 14600
L7250 14630
L7180 14650
L7130 14650
L7060 14630
L7010 14580
L6990 14530
L6960 14440
L6960 14370
L6990 14270
L7010 14220
L7060 14180
L7130 14150
L7180 14150
L7250 14180
L7270 14200
" />
<path d="M7460 14200
L7490 14180
L7540 14150
L7650 14150
L7700 14180
L7730 14200
L7750 14250
L7750 14290
L7730 14370
L7440 14650
L7750 14650
" />
</g>
<g style="fill:#840000; fill-opacity:0.0; 
stroke:#840000; stroke-width:60; stroke-opacity:1; 
stroke-linecap:round; stroke-linejoin:round;">
<text x="2120" y="14330"
textLength="1010" font-size="660" lengthAdjust="spacingAndGlyphs"
text-anchor="middle" opacity="0">34</text>
<path d="M1710 13800
L2020 13800
L1850 13990
L1920 13990
L1970 14020
L2000 14040
L2020 14090
L2020 14210
L2000 14250
L1970 14280
L1920 14300
L1780 14300
L1730 14280
L1710 14250
" />
<path d="M2450 13970
L2450 14300
" />
<path d="M2330 13780
L2210 14130
L2520 14130
" />
<path d="M2620 10930
L1620 10930
" />
</g>
<g style="fill:#008484; fill-opacity:0.0; 
stroke:#008484; stroke-width:60; stroke-opacity:1; 
stroke-linecap:round; stroke-linejoin:round;">
<text x="2820" y="11180"
textLength="3680" font-size="660" lengthAdjust="spacingAndGlyphs"
text-anchor="start" opacity="0">ADC_VREF</text>
<path d="M2940 11010
L3180 11010
" />
<path d="M2890 11150
L3060 10650
L3230 11150
" />
<path d="M3390 11150
L3390 10650
L3510 10650
L3580 10680
L3630 10720
L3650 10770
L3680 10870
L3680 10940
L3650 11030
L3630 11080
L3580 11130
L3510 11150
L3390 11150
" />
<path d="M4180 11100
L4150 11130
L4080 11150
L4040 11150
L3960 11130
L3920 11080
L3890 11030
L3870 10940
L3870 10870
L3890 10770
L3920 10720
L3960 10680
L4040 10650
L4080 10650
L4150 10680
L4180 10700
" />
<path d="M4270 11200
L4650 11200
" />
<path d="M4700 10650
L4870 11150
L5040 10650
" />
<path d="M5490 11150
L5320 10910
" />
<path d="M5200 11150
L5200 10650
L5390 10650
L5440 10680
L5460 10700
L5490 10750
L5490 10820
L5460 10870
L5440 10890
L5390 10910
L5200 10910
" />
<path d="M5700 10890
L5870 10890
" />
<path d="M5940 11150
L5700 11150
L5700 10650
L5940 10650
" />
<path d="M6320 10890
L6150 10890
" />
<path d="M6150 11150
L6150 10650
L6390 10650
" />
</g>
<g style="fill:#840000; fill-opacity:0.0; 
stroke:#840000; stroke-width:60; stroke-opacity:1; 
stroke-linecap:round; stroke-linejoin:round;">
<text x="2120" y="10830"
textLength="1010" font-size="660" lengthAdjust="spacingAndGlyphs"
text-anchor="middle" opacity="0">35</text>
<path d="M1710 10300
L2020 10300
L1850 10490
L1920 10490
L1970 10520
L2000 10540
L2020 10590
L2020 10710
L2000 10750
L1970 10780
L1920 10800
L1780 10800
L1730 10780
L1710 10750
" />
<path d="M2470 10300
L2230 10300
L2210 10540
L2230 10520
L2280 10490
L2400 10490
L2450 10520
L2470 10540
L2500 10590
L2500 10710
L2470 10750
L2450 10780
L2400 10800
L2280 10800
L2230 10780
L2210 10750
" />
<path d="M2620 2430
L1620 2430
" />
</g>
<g style="fill:#008484; fill-opacity:0.0; 
stroke:#008484; stroke-width:60; stroke-opacity:1; 
stroke-linecap:round; stroke-linejoin:round;">
<text x="2820" y="2680"
textLength="1440" font-size="660" lengthAdjust="spacingAndGlyphs"
text-anchor="start" opacity="0">3V3</text>
<path d="M2920 2150
L3230 2150
L3060 2340
L3130 2340
L3180 2370
L3200 2390
L3230 2440
L3230 2560
L3200 2600
L3180 2630
L3130 2650
L2990 2650
L2940 2630
L2920 2600
" />
<path d="M3370 2150
L3540 2650
L3700 2150
" />
<path d="M3820 2150
L4130 2150
L3960 2340
L4040 2340
L4080 2370
L4110 2390
L4130 2440
L4130 2560
L4110 2600
L4080 2630
L4040 2650
L3890 2650
L3850 2630
L3820 2600
" />
</g>
<g style="fill:#840000; fill-opacity:0.0; 
stroke:#840000; stroke-width:60; stroke-opacity:1; 
stroke-linecap:round; stroke-linejoin:round;">
<text x="2120" y="2330"
textLength="1010" font-size="660" lengthAdjust="spacingAndGlyphs"
text-anchor="middle" opacity="0">36</text>
<path d="M1710 1800
L2020 1800
L1850 1990
L1920 1990
L1970 2020
L2000 2040
L2020 2090
L2020 2210
L2000 2250
L1970 2280
L1920 2300
L1780 2300
L1730 2280
L1710 2250
" />
<path d="M2450 1800
L2350 1800
L2310 1830
L2280 1850
L2230 1920
L2210 2020
L2210 2210
L2230 2250
L2260 2280
L2310 2300
L2400 2300
L2450 2280
L2470 2250
L2500 2210
L2500 2090
L2470 2040
L2450 2020
L2400 1990
L2310 1990
L2260 2020
L2230 2040
L2210 2090
" />
<path d="M2620 3430
L1620 3430
" />
</g>
<g style="fill:#008484; fill-opacity:0.0; 
stroke:#008484; stroke-width:60; stroke-opacity:1; 
stroke-linecap:round; stroke-linejoin:round;">
<text x="2820" y="3680"
textLength="2800" font-size="660" lengthAdjust="spacingAndGlyphs"
text-anchor="start" opacity="0">3V3_EN</text>
<path d="M2920 3150
L3230 3150
L3060 3340
L3130 3340
L3180 3370
L3200 3390
L3230 3440
L3230 3560
L3200 3600
L3180 3630
L3130 3650
L2990 3650
L2940 3630
L2920 3600
" />
<path d="M3370 3150
L3540 3650
L3700 3150
" />
<path d="M3820 3150
L4130 3150
L3960 3340
L4040 3340
L4080 3370
L4110 3390
L4130 3440
L4130 3560
L4110 3600
L4080 3630
L4040 3650
L3890 3650
L3850 3630
L3820 3600
" />
<path d="M4230 3700
L4610 3700
" />
<path d="M4730 3390
L4890 3390
" />
<path d="M4960 3650
L4730 3650
L4730 3150
L4960 3150
" />
<path d="M5180 3650
L5180 3150
L5460 3650
L5460 3150
" />
</g>
<g style="fill:#840000; fill-opacity:0.0; 
stroke:#840000; stroke-width:60; stroke-opacity:1; 
stroke-linecap:round; stroke-linejoin:round;">
<text x="2120" y="3330"
textLength="1010" font-size="660" lengthAdjust="spacingAndGlyphs"
text-anchor="middle" opacity="0">37</text>
<path d="M1710 2800
L2020 2800
L1850 2990
L1920 2990
L1970 3020
L2000 3040
L2020 3090
L2020 3210
L2000 3250
L1970 3280
L1920 3300
L1780 3300
L1730 3280
L1710 3250
" />
<path d="M2190 2800
L2520 2800
L2310 3300
" />
<path d="M2620 24430
L1620 24430
" />
</g>
<g style="fill:#008484; fill-opacity:0.0; 
stroke:#008484; stroke-width:60; stroke-opacity:1; 
stroke-linecap:round; stroke-linejoin:round;">
<text x="2820" y="24430"
textLength="60" font-size="0" lengthAdjust="spacingAndGlyphs"
text-anchor="start" opacity="0">GND</text>
</g>
<g style="fill:#008484; fill-opacity:0.0; 
stroke:#008484; stroke-width:0; stroke-opacity:1; 
stroke-linecap:round; stroke-linejoin:round;">
<path d="M2820 24430
L2820 24430
" />
<path d="M2820 24430
L2820 24430
" />
<path d="M2820 24430
L2820 24430
" />
</g>
<g style="fill:#008484; fill-opacity:0.0; 
stroke:#008484; stroke-width:60; stroke-opacity:1; 
stroke-linecap:round; stroke-linejoin:round;">
</g>
<g style="fill:#840000; fill-opacity:0.0; 
stroke:#840000; stroke-width:60; stroke-opacity:1; 
stroke-linecap:round; stroke-linejoin:round;">
<text x="2120" y="24360"
textLength="0" font-size="0" lengthAdjust="spacingAndGlyphs"
text-anchor="middle" opacity="0">38</text>
</g>
<g style="fill:#840000; fill-opacity:0.0; 
stroke:#840000; stroke-width:0; stroke-opacity:1; 
stroke-linecap:round; stroke-linejoin:round;">
<path d="M2120 24360
L2120 24360
" />
<path d="M2120 24360
L2120 24360
" />
</g>
<g style="fill:#840000; fill-opacity:0.0; 
stroke:#840000; stroke-width:60; stroke-opacity:1; 
stroke-linecap:round; stroke-linejoin:round;">
<path d="M2620 4430
L1620 4430
" />
</g>
<g style="fill:#008484; fill-opacity:0.0; 
stroke:#008484; stroke-width:60; stroke-opacity:1; 
stroke-linecap:round; stroke-linejoin:round;">
<text x="2820" y="4680"
textLength="1810" font-size="660" lengthAdjust="spacingAndGlyphs"
text-anchor="start" opacity="0">VSYS</text>
<path d="M2890 4150
L3060 4650
L3230 4150
" />
<path d="M3370 4630
L3440 4650
L3560 4650
L3610 4630
L3630 4600
L3650 4560
L3650 4510
L3630 4460
L3610 4440
L3560 4410
L3460 4390
L3420 4370
L3390 4340
L3370 4290
L3370 4250
L3390 4200
L3420 4180
L3460 4150
L3580 4150
L3650 4180
" />
<path d="M3960 4410
L3960 4650
" />
<path d="M3800 4150
L3960 4410
L4130 4150
" />
<path d="M4270 4630
L4350 4650
L4460 4650
L4510 4630
L4540 4600
L4560 4560
L4560 4510
L4540 4460
L4510 4440
L4460 4410
L4370 4390
L4320 4370
L4300 4340
L4270 4290
L4270 4250
L4300 4200
L4320 4180
L4370 4150
L4490 4150
L4560 4180
" />
</g>
<g style="fill:#840000; fill-opacity:0.0; 
stroke:#840000; stroke-width:60; stroke-opacity:1; 
stroke-linecap:round; stroke-linejoin:round;">
<text x="2120" y="4330"
textLength="1010" font-size="660" lengthAdjust="spacingAndGlyphs"
text-anchor="middle" opacity="0">39</text>
<path d="M1710 3800
L2020 3800
L1850 3990
L1920 3990
L1970 4020
L2000 4040
L2020 4090
L2020 4210
L2000 4250
L1970 4280
L1920 4300
L1780 4300
L1730 4280
L1710 4250
" />
<path d="M2260 4300
L2350 4300
L2400 4280
L2420 4250
L2470 4180
L2500 4090
L2500 3900
L2470 3850
L2450 3830
L2400 3800
L2310 3800
L2260 3830
L2230 3850
L2210 3900
L2210 4020
L2230 4060
L2260 4090
L2310 4110
L2400 4110
L2450 4090
L2470 4060
L2500 4020
" />
<path d="M12120 4430
L13120 4430
" />
</g>
<g style="fill:#008484; fill-opacity:0.0; 
stroke:#008484; stroke-width:60; stroke-opacity:1; 
stroke-linecap:round; stroke-linejoin:round;">
<text x="11920" y="4680"
textLength="2300" font-size="660" lengthAdjust="spacingAndGlyphs"
text-anchor="end" opacity="0">GPIO2</text>
<path d="M10030 4180
L9980 4150
L9910 4150
L9840 4180
L9790 4220
L9770 4270
L9740 4370
L9740 4440
L9770 4530
L9790 4580
L9840 4630
L9910 4650
L9960 4650
L10030 4630
L10050 4600
L10050 4440
L9960 4440
" />
<path d="M10270 4650
L10270 4150
L10460 4150
L10500 4180
L10530 4200
L10550 4250
L10550 4320
L10530 4370
L10500 4390
L10460 4410
L10270 4410
" />
<path d="M10770 4650
L10770 4150
" />
<path d="M11100 4150
L11190 4150
L11240 4180
L11290 4220
L11310 4320
L11310 4480
L11290 4580
L11240 4630
L11190 4650
L11100 4650
L11050 4630
L11000 4580
L10980 4480
L10980 4320
L11000 4220
L11050 4180
L11100 4150
" />
<path d="M11500 4200
L11530 4180
L11580 4150
L11690 4150
L11740 4180
L11770 4200
L11790 4250
L11790 4290
L11770 4370
L11480 4650
L11790 4650
" />
</g>
<g style="fill:#840000; fill-opacity:0.0; 
stroke:#840000; stroke-width:60; stroke-opacity:1; 
stroke-linecap:round; stroke-linejoin:round;">
<text x="12620" y="4330"
textLength="540" font-size="660" lengthAdjust="spacingAndGlyphs"
text-anchor="middle" opacity="0">4</text>
<path d="M12710 3970
L12710 4300
" />
<path d="M12590 3780
L12470 4130
L12780 4130
" />
<path d="M2620 5430
L1620 5430
" />
</g>
<g style="fill:#008484; fill-opacity:0.0; 
stroke:#008484; stroke-width:60; stroke-opacity:1; 
stroke-linecap:round; stroke-linejoin:round;">
<text x="2820" y="5680"
textLength="1990" font-size="660" lengthAdjust="spacingAndGlyphs"
text-anchor="start" opacity="0">VBUS</text>
<path d="M2890 5150
L3060 5650
L3230 5150
" />
<path d="M3560 5390
L3630 5410
L3650 5440
L3680 5480
L3680 5560
L3650 5600
L3630 5630
L3580 5650
L3390 5650
L3390 5150
L3560 5150
L3610 5180
L3630 5200
L3650 5250
L3650 5290
L3630 5340
L3610 5370
L3560 5390
L3390 5390
" />
<path d="M3890 5150
L3890 5560
L3920 5600
L3940 5630
L3990 5650
L4080 5650
L4130 5630
L4150 5600
L4180 5560
L4180 5150
" />
<path d="M4390 5630
L4460 5650
L4580 5650
L4630 5630
L4650 5600
L4680 5560
L4680 5510
L4650 5460
L4630 5440
L4580 5410
L4490 5390
L4440 5370
L4420 5340
L4390 5290
L4390 5250
L4420 5200
L4440 5180
L4490 5150
L4610 5150
L4680 5180
" />
</g>
<g style="fill:#840000; fill-opacity:0.0; 
stroke:#840000; stroke-width:60; stroke-opacity:1; 
stroke-linecap:round; stroke-linejoin:round;">
<text x="2120" y="5330"
textLength="1010" font-size="660" lengthAdjust="spacingAndGlyphs"
text-anchor="middle" opacity="0">40</text>
<path d="M1970 4970
L1970 5300
" />
<path d="M1850 4780
L1730 5130
L2040 5130
" />
<path d="M2330 4800
L2380 4800
L2420 4830
L2450 4850
L2470 4900
L2500 4990
L2500 5110
L2470 5210
L2450 5250
L2420 5280
L2380 5300
L2330 5300
L2280 5280
L2260 5250
L2230 5210
L2210 5110
L2210 4990
L2230 4900
L2260 4850
L2280 4830
L2330 4800
" />
<path d="M2620 8430
L1620 8430
" />
</g>
<g style="fill:#008484; fill-opacity:0.0; 
stroke:#008484; stroke-width:60; stroke-opacity:1; 
stroke-linecap:round; stroke-linejoin:round;">
<text x="2820" y="8680"
textLength="2510" font-size="660" lengthAdjust="spacingAndGlyphs"
text-anchor="start" opacity="0">SWCLK</text>
<path d="M2940 8630
L3010 8650
L3130 8650
L3180 8630
L3200 8600
L3230 8560
L3230 8510
L3200 8460
L3180 8440
L3130 8410
L3040 8390
L2990 8370
L2960 8340
L2940 8290
L2940 8250
L2960 8200
L2990 8180
L3040 8150
L3150 8150
L3230 8180
" />
<path d="M3390 8150
L3510 8650
L3610 8290
L3700 8650
L3820 8150
" />
<path d="M4300 8600
L4270 8630
L4200 8650
L4150 8650
L4080 8630
L4040 8580
L4010 8530
L3990 8440
L3990 8370
L4010 8270
L4040 8220
L4080 8180
L4150 8150
L4200 8150
L4270 8180
L4300 8200
" />
<path d="M4750 8650
L4510 8650
L4510 8150
" />
<path d="M4920 8650
L4920 8150
" />
<path d="M5200 8650
L4990 8370
" />
<path d="M5200 8150
L4920 8440
" />
</g>
<g style="fill:#840000; fill-opacity:0.0; 
stroke:#840000; stroke-width:60; stroke-opacity:1; 
stroke-linecap:round; stroke-linejoin:round;">
<text x="2120" y="8330"
textLength="1010" font-size="660" lengthAdjust="spacingAndGlyphs"
text-anchor="middle" opacity="0">41</text>
<path d="M1970 7970
L1970 8300
" />
<path d="M1850 7780
L1730 8130
L2040 8130
" />
<path d="M2500 8300
L2210 8300
" />
<path d="M2350 8300
L2350 7800
L2310 7870
L2260 7920
L2210 7940
" />
<path d="M2620 24430
L1620 24430
" />
</g>
<g style="fill:#008484; fill-opacity:0.0; 
stroke:#008484; stroke-width:60; stroke-opacity:1; 
stroke-linecap:round; stroke-linejoin:round;">
<text x="2820" y="24430"
textLength="60" font-size="0" lengthAdjust="spacingAndGlyphs"
text-anchor="start" opacity="0">GND</text>
</g>
<g style="fill:#008484; fill-opacity:0.0; 
stroke:#008484; stroke-width:0; stroke-opacity:1; 
stroke-linecap:round; stroke-linejoin:round;">
<path d="M2820 24430
L2820 24430
" />
<path d="M2820 24430
L2820 24430
" />
<path d="M2820 24430
L2820 24430
" />
</g>
<g style="fill:#008484; fill-opacity:0.0; 
stroke:#008484; stroke-width:60; stroke-opacity:1; 
stroke-linecap:round; stroke-linejoin:round;">
</g>
<g style="fill:#840000; fill-opacity:0.0; 
stroke:#840000; stroke-width:60; stroke-opacity:1; 
stroke-linecap:round; stroke-linejoin:round;">
<text x="2120" y="24360"
textLength="0" font-size="0" lengthAdjust="spacingAndGlyphs"
text-anchor="middle" opacity="0">42</text>
</g>
<g style="fill:#840000; fill-opacity:0.0; 
stroke:#840000; stroke-width:0; stroke-opacity:1; 
stroke-linecap:round; stroke-linejoin:round;">
<path d="M2120 24360
L2120 24360
" />
<path d="M2120 24360
L2120 24360
" />
<path d="M2120 24360
L2120 24360
" />
</g>
<g style="fill:#840000; fill-opacity:0.0; 
stroke:#840000; stroke-width:60; stroke-opacity:1; 
stroke-linecap:round; stroke-linejoin:round;">
<path d="M2620 9430
L1620 9430
" />
</g>
<g style="fill:#008484; fill-opacity:0.0; 
stroke:#008484; stroke-width:60; stroke-opacity:1; 
stroke-linecap:round; stroke-linejoin:round;">
<text x="2820" y="9680"
textLength="2310" font-size="660" lengthAdjust="spacingAndGlyphs"
text-anchor="start" opacity="0">SWDIO</text>
<path d="M2940 9630
L3010 9650
L3130 9650
L3180 9630
L3200 9600
L3230 9560
L3230 9510
L3200 9460
L3180 9440
L3130 9410
L3040 9390
L2990 9370
L2960 9340
L2940 9290
L2940 9250
L2960 9200
L2990 9180
L3040 9150
L3150 9150
L3230 9180
" />
<path d="M3390 9150
L3510 9650
L3610 9290
L3700 9650
L3820 9150
" />
<path d="M4010 9650
L4010 9150
L4130 9150
L4200 9180
L4250 9220
L4270 9270
L4300 9370
L4300 9440
L4270 9530
L4250 9580
L4200 9630
L4130 9650
L4010 9650
" />
<path d="M4510 9650
L4510 9150
" />
<path d="M4850 9150
L4940 9150
L4990 9180
L5040 9220
L5060 9320
L5060 9480
L5040 9580
L4990 9630
L4940 9650
L4850 9650
L4800 9630
L4750 9580
L4730 9480
L4730 9320
L4750 9220
L4800 9180
L4850 9150
" />
</g>
<g style="fill:#840000; fill-opacity:0.0; 
stroke:#840000; stroke-width:60; stroke-opacity:1; 
stroke-linecap:round; stroke-linejoin:round;">
<text x="2120" y="9330"
textLength="1010" font-size="660" lengthAdjust="spacingAndGlyphs"
text-anchor="middle" opacity="0">43</text>
<path d="M1970 8970
L1970 9300
" />
<path d="M1850 8780
L1730 9130
L2040 9130
" />
<path d="M2190 8800
L2500 8800
L2330 8990
L2400 8990
L2450 9020
L2470 9040
L2500 9090
L2500 9210
L2470 9250
L2450 9280
L2400 9300
L2260 9300
L2210 9280
L2190 9250
" />
<path d="M12120 5430
L13120 5430
" />
</g>
<g style="fill:#008484; fill-opacity:0.0; 
stroke:#008484; stroke-width:60; stroke-opacity:1; 
stroke-linecap:round; stroke-linejoin:round;">
<text x="11920" y="5680"
textLength="2300" font-size="660" lengthAdjust="spacingAndGlyphs"
text-anchor="end" opacity="0">GPIO3</text>
<path d="M10030 5180
L9980 5150
L9910 5150
L9840 5180
L9790 5220
L9770 5270
L9740 5370
L9740 5440
L9770 5530
L9790 5580
L9840 5630
L9910 5650
L9960 5650
L10030 5630
L10050 5600
L10050 5440
L9960 5440
" />
<path d="M10270 5650
L10270 5150
L10460 5150
L10500 5180
L10530 5200
L10550 5250
L10550 5320
L10530 5370
L10500 5390
L10460 5410
L10270 5410
" />
<path d="M10770 5650
L10770 5150
" />
<path d="M11100 5150
L11190 5150
L11240 5180
L11290 5220
L11310 5320
L11310 5480
L11290 5580
L11240 5630
L11190 5650
L11100 5650
L11050 5630
L11000 5580
L10980 5480
L10980 5320
L11000 5220
L11050 5180
L11100 5150
" />
<path d="M11480 5150
L11790 5150
L11620 5340
L11690 5340
L11740 5370
L11770 5390
L11790 5440
L11790 5560
L11770 5600
L11740 5630
L11690 5650
L11550 5650
L11500 5630
L11480 5600
" />
</g>
<g style="fill:#840000; fill-opacity:0.0; 
stroke:#840000; stroke-width:60; stroke-opacity:1; 
stroke-linecap:round; stroke-linejoin:round;">
<text x="12620" y="5330"
textLength="540" font-size="660" lengthAdjust="spacingAndGlyphs"
text-anchor="middle" opacity="0">5</text>
<path d="M12730 4800
L12500 4800
L12470 5040
L12500 5020
L12540 4990
L12660 4990
L12710 5020
L12730 5040
L12760 5090
L12760 5210
L12730 5250
L12710 5280
L12660 5300
L12540 5300
L12500 5280
L12470 5250
" />
<path d="M12120 6430
L13120 6430
" />
</g>
<g style="fill:#008484; fill-opacity:0.0; 
stroke:#008484; stroke-width:60; stroke-opacity:1; 
stroke-linecap:round; stroke-linejoin:round;">
<text x="11920" y="6680"
textLength="2300" font-size="660" lengthAdjust="spacingAndGlyphs"
text-anchor="end" opacity="0">GPIO4</text>
<path d="M10030 6180
L9980 6150
L9910 6150
L9840 6180
L9790 6220
L9770 6270
L9740 6370
L9740 6440
L9770 6530
L9790 6580
L9840 6630
L9910 6650
L9960 6650
L10030 6630
L10050 6600
L10050 6440
L9960 6440
" />
<path d="M10270 6650
L10270 6150
L10460 6150
L10500 6180
L10530 6200
L10550 6250
L10550 6320
L10530 6370
L10500 6390
L10460 6410
L10270 6410
" />
<path d="M10770 6650
L10770 6150
" />
<path d="M11100 6150
L11190 6150
L11240 6180
L11290 6220
L11310 6320
L11310 6480
L11290 6580
L11240 6630
L11190 6650
L11100 6650
L11050 6630
L11000 6580
L10980 6480
L10980 6320
L11000 6220
L11050 6180
L11100 6150
" />
<path d="M11740 6320
L11740 6650
" />
<path d="M11620 6130
L11500 6480
L11810 6480
" />
</g>
<g style="fill:#840000; fill-opacity:0.0; 
stroke:#840000; stroke-width:60; stroke-opacity:1; 
stroke-linecap:round; stroke-linejoin:round;">
<text x="12620" y="6330"
textLength="540" font-size="660" lengthAdjust="spacingAndGlyphs"
text-anchor="middle" opacity="0">6</text>
<path d="M12710 5800
L12620 5800
L12570 5830
L12540 5850
L12500 5920
L12470 6020
L12470 6210
L12500 6250
L12520 6280
L12570 6300
L12660 6300
L12710 6280
L12730 6250
L12760 6210
L12760 6090
L12730 6040
L12710 6020
L12660 5990
L12570 5990
L12520 6020
L12500 6040
L12470 6090
" />
<path d="M12120 7430
L13120 7430
" />
</g>
<g style="fill:#008484; fill-opacity:0.0; 
stroke:#008484; stroke-width:60; stroke-opacity:1; 
stroke-linecap:round; stroke-linejoin:round;">
<text x="11920" y="7680"
textLength="2300" font-size="660" lengthAdjust="spacingAndGlyphs"
text-anchor="end" opacity="0">GPIO5</text>
<path d="M10030 7180
L9980 7150
L9910 7150
L9840 7180
L9790 7220
L9770 7270
L9740 7370
L9740 7440
L9770 7530
L9790 7580
L9840 7630
L9910 7650
L9960 7650
L10030 7630
L10050 7600
L10050 7440
L9960 7440
" />
<path d="M10270 7650
L10270 7150
L10460 7150
L10500 7180
L10530 7200
L10550 7250
L10550 7320
L10530 7370
L10500 7390
L10460 7410
L10270 7410
" />
<path d="M10770 7650
L10770 7150
" />
<path d="M11100 7150
L11190 7150
L11240 7180
L11290 7220
L11310 7320
L11310 7480
L11290 7580
L11240 7630
L11190 7650
L11100 7650
L11050 7630
L11000 7580
L10980 7480
L10980 7320
L11000 7220
L11050 7180
L11100 7150
" />
<path d="M11770 7150
L11530 7150
L11500 7390
L11530 7370
L11580 7340
L11690 7340
L11740 7370
L11770 7390
L11790 7440
L11790 7560
L11770 7600
L11740 7630
L11690 7650
L11580 7650
L11530 7630
L11500 7600
" />
</g>
<g style="fill:#840000; fill-opacity:0.0; 
stroke:#840000; stroke-width:60; stroke-opacity:1; 
stroke-linecap:round; stroke-linejoin:round;">
<text x="12620" y="7330"
textLength="540" font-size="660" lengthAdjust="spacingAndGlyphs"
text-anchor="middle" opacity="0">7</text>
<path d="M12450 6800
L12780 6800
L12570 7300
" />
<path d="M2620 24430
L1620 24430
" />
</g>
<g style="fill:#008484; fill-opacity:0.0; 
stroke:#008484; stroke-width:60; stroke-opacity:1; 
stroke-linecap:round; stroke-linejoin:round;">
<text x="2820" y="24430"
textLength="60" font-size="0" lengthAdjust="spacingAndGlyphs"
text-anchor="start" opacity="0">GND</text>
</g>
<g style="fill:#008484; fill-opacity:0.0; 
stroke:#008484; stroke-width:0; stroke-opacity:1; 
stroke-linecap:round; stroke-linejoin:round;">
<path d="M2820 24430
L2820 24430
" />
<path d="M2820 24430
L2820 24430
" />
<path d="M2820 24430
L2820 24430
" />
</g>
<g style="fill:#008484; fill-opacity:0.0; 
stroke:#008484; stroke-width:60; stroke-opacity:1; 
stroke-linecap:round; stroke-linejoin:round;">
</g>
<g style="fill:#840000; fill-opacity:0.0; 
stroke:#840000; stroke-width:60; stroke-opacity:1; 
stroke-linecap:round; stroke-linejoin:round;">
<text x="2120" y="24360"
textLength="0" font-size="0" lengthAdjust="spacingAndGlyphs"
text-anchor="middle" opacity="0">8</text>
</g>
<g style="fill:#840000; fill-opacity:0.0; 
stroke:#840000; stroke-width:0; stroke-opacity:1; 
stroke-linecap:round; stroke-linejoin:round;">
<path d="M2120 24360
L2120 24360
" />
</g>
<g style="fill:#840000; fill-opacity:0.0; 
stroke:#840000; stroke-width:60; stroke-opacity:1; 
stroke-linecap:round; stroke-linejoin:round;">
<path d="M12120 8430
L13120 8430
" />
</g>
<g style="fill:#008484; fill-opacity:0.0; 
stroke:#008484; stroke-width:60; stroke-opacity:1; 
stroke-linecap:round; stroke-linejoin:round;">
<text x="11920" y="8680"
textLength="2240" font-size="660" lengthAdjust="spacingAndGlyphs"
text-anchor="end" opacity="0">GPIO6</text>
<path d="M10030 8180
L9980 8150
L9910 8150
L9840 8180
L9790 8220
L9770 8270
L9740 8370
L9740 8440
L9770 8530
L9790 8580
L9840 8630
L9910 8650
L9960 8650
L10030 8630
L10050 8600
L10050 8440
L9960 8440
" />
<path d="M10270 8650
L10270 8150
L10460 8150
L10500 8180
L10530 8200
L10550 8250
L10550 8320
L10530 8370
L10500 8390
L10460 8410
L10270 8410
" />
<path d="M10770 8650
L10770 8150
" />
<path d="M11100 8150
L11190 8150
L11240 8180
L11290 8220
L11310 8320
L11310 8480
L11290 8580
L11240 8630
L11190 8650
L11100 8650
L11050 8630
L11000 8580
L10980 8480
L10980 8320
L11000 8220
L11050 8180
L11100 8150
" />
<path d="M11740 8150
L11650 8150
L11600 8180
L11580 8200
L11530 8270
L11500 8370
L11500 8560
L11530 8600
L11550 8630
L11600 8650
L11690 8650
L11740 8630
L11770 8600
L11790 8560
L11790 8440
L11770 8390
L11740 8370
L11690 8340
L11600 8340
L11550 8370
L11530 8390
L11500 8440
" />
</g>
<g style="fill:#840000; fill-opacity:0.0; 
stroke:#840000; stroke-width:60; stroke-opacity:1; 
stroke-linecap:round; stroke-linejoin:round;">
<text x="12620" y="8330"
textLength="540" font-size="660" lengthAdjust="spacingAndGlyphs"
text-anchor="middle" opacity="0">9</text>
<path d="M12520 8300
L12620 8300
L12660 8280
L12690 8250
L12730 8180
L12760 8090
L12760 7900
L12730 7850
L12710 7830
L12660 7800
L12570 7800
L12520 7830
L12500 7850
L12470 7900
L12470 8020
L12500 8060
L12520 8090
L12570 8110
L12660 8110
L12710 8090
L12730 8060
L12760 8020
" />
</g>
<g style="fill:#840084; fill-opacity:0.0; 
stroke:#840084; stroke-width:60; stroke-opacity:1; 
stroke-linecap:round; stroke-linejoin:round;">
</g>
<g style="fill:#008484; fill-opacity:0.0; 
stroke:#008484; stroke-width:60; stroke-opacity:1; 
stroke-linecap:round; stroke-linejoin:round;">
<text x="7120" y="6700"
textLength="3060" font-size="660" lengthAdjust="spacingAndGlyphs"
text-anchor="middle" opacity="0">RP_Pico</text>
<path d="M6020 6670
L5850 6430
" />
<path d="M5730 6670
L5730 6170
L5920 6170
L5970 6200
L6000 6220
L6020 6270
L6020 6340
L6000 6390
L5970 6410
L5920 6430
L5730 6430
" />
<path d="M6230 6670
L6230 6170
L6420 6170
L6470 6200
L6500 6220
L6520 6270
L6520 6340
L6500 6390
L6470 6410
L6420 6430
L6230 6430
" />
<path d="M6620 6720
L7000 6720
" />
<path d="M7120 6670
L7120 6170
L7310 6170
L7350 6200
L7380 6220
L7400 6270
L7400 6340
L7380 6390
L7350 6410
L7310 6430
L7120 6430
" />
<path d="M7620 6670
L7620 6340
" />
<path d="M7620 6170
L7590 6200
L7620 6220
L7640 6200
L7620 6170
L7620 6220
" />
<path d="M8070 6650
L8020 6670
L7920 6670
L7880 6650
L7850 6620
L7830 6580
L7830 6430
L7850 6390
L7880 6360
L7920 6340
L8020 6340
L8070 6360
" />
<path d="M8350 6670
L8310 6650
L8280 6620
L8260 6580
L8260 6430
L8280 6390
L8310 6360
L8350 6340
L8420 6340
L8470 6360
L8500 6390
L8520 6430
L8520 6580
L8500 6620
L8470 6650
L8420 6670
L8350 6670
" />
<text x="2620" y="700"
textLength="1010" font-size="660" lengthAdjust="spacingAndGlyphs"
text-anchor="middle" opacity="0">U?</text>
<path d="M2260 170
L2260 580
L2280 620
L2310 650
L2350 670
L2450 670
L2500 650
L2520 620
L2540 580
L2540 170
" />
<path d="M2850 620
L2880 650
L2850 670
L2830 650
L2850 620
L2850 670
" />
<path d="M2760 200
L2810 170
L2920 170
L2970 200
L3000 240
L3000 290
L2970 340
L2950 360
L2900 390
L2880 410
L2850 460
L2850 480
" />
</g>
<g style="fill:#840084; fill-opacity:0.0; 
stroke:#840084; stroke-width:60; stroke-opacity:1; 
stroke-linecap:round; stroke-linejoin:round;">
<g transform="rotate(-90 8630 14430)">
<text x="8630" y="14620"
textLength="13930" font-size="520" lengthAdjust="spacingAndGlyphs"
text-anchor="middle" opacity="0">MCU_RaspberryPi_and_Boards:RPi_Pico_SMD_TH</text>
</g>
<path d="M8800 21270
L8410 21270
L8690 21140
L8410 21010
L8800 21010
" />
<path d="M8760 20600
L8780 20620
L8800 20670
L8800 20710
L8780 20770
L8750 20800
L8710 20820
L8630 20840
L8580 20840
L8500 20820
L8470 20800
L8430 20770
L8410 20710
L8410 20670
L8430 20620
L8450 20600
" />
<path d="M8410 20430
L8730 20430
L8760 20410
L8780 20400
L8800 20360
L8800 20280
L8780 20250
L8760 20230
L8730 20210
L8410 20210
" />
<path d="M8840 20120
L8840 19820
" />
<path d="M8800 19500
L8620 19630
" />
<path d="M8800 19730
L8410 19730
L8410 19580
L8430 19540
L8450 19520
L8490 19500
L8540 19500
L8580 19520
L8600 19540
L8620 19580
L8620 19730
" />
<path d="M8800 19170
L8600 19170
L8560 19190
L8540 19230
L8540 19300
L8560 19340
" />
<path d="M8780 19170
L8800 19210
L8800 19300
L8780 19340
L8750 19360
L8710 19360
L8670 19340
L8650 19300
L8650 19210
L8630 19170
" />
<path d="M8780 19000
L8800 18970
L8800 18890
L8780 18850
L8750 18840
L8730 18840
L8690 18850
L8670 18890
L8670 18950
L8650 18980
L8620 19000
L8600 19000
L8560 18980
L8540 18950
L8540 18890
L8560 18850
" />
<path d="M8540 18670
L8930 18670
" />
<path d="M8560 18670
L8540 18630
L8540 18560
L8560 18520
L8580 18500
L8620 18480
L8730 18480
L8760 18500
L8780 18520
L8800 18560
L8800 18630
L8780 18670
" />
<path d="M8800 18320
L8410 18320
" />
<path d="M8560 18320
L8540 18280
L8540 18200
L8560 18170
L8580 18150
L8620 18130
L8730 18130
L8760 18150
L8780 18170
L8800 18200
L8800 18280
L8780 18320
" />
<path d="M8780 17810
L8800 17850
L8800 17930
L8780 17960
L8750 17980
L8600 17980
L8560 17960
L8540 17930
L8540 17850
L8560 17810
L8600 17800
L8630 17800
L8670 17980
" />
<path d="M8800 17630
L8540 17630
" />
<path d="M8620 17630
L8580 17610
L8560 17590
L8540 17550
L8540 17520
" />
<path d="M8800 17390
L8540 17390
" />
<path d="M8620 17390
L8580 17370
L8560 17350
L8540 17310
L8540 17280
" />
<path d="M8540 17180
L8800 17090
" />
<path d="M8540 17000
L8800 17090
L8890 17130
L8910 17150
L8930 17180
" />
<path d="M8800 16850
L8410 16850
L8410 16700
L8430 16660
L8450 16640
L8490 16630
L8540 16630
L8580 16640
L8600 16660
L8620 16700
L8620 16850
" />
<path d="M8800 16460
L8540 16460
" />
<path d="M8410 16460
L8430 16480
L8450 16460
L8430 16440
L8410 16460
L8450 16460
" />
<path d="M8840 16370
L8840 16070
" />
<path d="M8800 15810
L8600 15810
L8560 15830
L8540 15860
L8540 15940
L8560 15980
" />
<path d="M8780 15810
L8800 15850
L8800 15940
L8780 15980
L8750 15990
L8710 15990
L8670 15980
L8650 15940
L8650 15850
L8630 15810
" />
<path d="M8540 15620
L8800 15620
" />
<path d="M8580 15620
L8560 15600
L8540 15570
L8540 15510
L8560 15470
L8600 15460
L8800 15460
" />
<path d="M8800 15100
L8410 15100
" />
<path d="M8780 15100
L8800 15140
L8800 15210
L8780 15250
L8760 15270
L8730 15290
L8620 15290
L8580 15270
L8560 15250
L8540 15210
L8540 15140
L8560 15100
" />
<path d="M8840 15010
L8840 14710
" />
<path d="M8600 14490
L8620 14430
L8630 14420
L8670 14400
L8730 14400
L8760 14420
L8780 14430
L8800 14470
L8800 14620
L8410 14620
L8410 14490
L8430 14450
L8450 14430
L8490 14420
L8520 14420
L8560 14430
L8580 14450
L8600 14490
L8600 14620
" />
<path d="M8800 14170
L8780 14210
L8760 14230
L8730 14250
L8620 14250
L8580 14230
L8560 14210
L8540 14170
L8540 14120
L8560 14080
L8580 14060
L8620 14040
L8730 14040
L8760 14060
L8780 14080
L8800 14120
L8800 14170
" />
<path d="M8800 13710
L8600 13710
L8560 13730
L8540 13770
L8540 13840
L8560 13880
" />
<path d="M8780 13710
L8800 13750
L8800 13840
L8780 13880
L8750 13900
L8710 13900
L8670 13880
L8650 13840
L8650 13750
L8630 13710
" />
<path d="M8800 13520
L8540 13520
" />
<path d="M8620 13520
L8580 13510
L8560 13490
L8540 13450
L8540 13410
" />
<path d="M8800 13120
L8410 13120
" />
<path d="M8780 13120
L8800 13150
L8800 13230
L8780 13260
L8760 13280
L8730 13300
L8620 13300
L8580 13280
L8560 13260
L8540 13230
L8540 13150
L8560 13120
" />
<path d="M8780 12950
L8800 12910
L8800 12840
L8780 12800
L8750 12780
L8730 12780
L8690 12800
L8670 12840
L8670 12890
L8650 12930
L8620 12950
L8600 12950
L8560 12930
L8540 12890
L8540 12840
L8560 12800
" />
<path d="M8760 12610
L8780 12600
L8800 12610
L8780 12630
L8760 12610
L8800 12610
" />
<path d="M8560 12610
L8580 12600
L8600 12610
L8580 12630
L8560 12610
L8600 12610
" />
<path d="M8800 12210
L8620 12340
" />
<path d="M8800 12430
L8410 12430
L8410 12280
L8430 12240
L8450 12220
L8490 12210
L8540 12210
L8580 12220
L8600 12240
L8620 12280
L8620 12430
" />
<path d="M8800 12040
L8410 12040
L8410 11890
L8430 11850
L8450 11830
L8490 11820
L8540 11820
L8580 11830
L8600 11850
L8620 11890
L8620 12040
" />
<path d="M8800 11650
L8540 11650
" />
<path d="M8410 11650
L8430 11670
L8450 11650
L8430 11630
L8410 11650
L8450 11650
" />
<path d="M8840 11560
L8840 11260
" />
<path d="M8800 11170
L8410 11170
L8410 11020
L8430 10980
L8450 10960
L8490 10940
L8540 10940
L8580 10960
L8600 10980
L8620 11020
L8620 11170
" />
<path d="M8800 10780
L8540 10780
" />
<path d="M8410 10780
L8430 10790
L8450 10780
L8430 10760
L8410 10780
L8450 10780
" />
<path d="M8780 10420
L8800 10460
L8800 10530
L8780 10570
L8760 10590
L8730 10610
L8620 10610
L8580 10590
L8560 10570
L8540 10530
L8540 10460
L8560 10420
" />
<path d="M8800 10200
L8780 10240
L8760 10260
L8730 10270
L8620 10270
L8580 10260
L8560 10240
L8540 10200
L8540 10140
L8560 10110
L8580 10090
L8620 10070
L8730 10070
L8760 10090
L8780 10110
L8800 10140
L8800 10200
" />
<path d="M8840 10000
L8840 9700
" />
<path d="M8780 9620
L8800 9570
L8800 9480
L8780 9440
L8760 9420
L8730 9400
L8690 9400
L8650 9420
L8630 9440
L8620 9480
L8600 9550
L8580 9590
L8560 9610
L8520 9620
L8490 9620
L8450 9610
L8430 9590
L8410 9550
L8410 9460
L8430 9400
" />
<path d="M8800 9230
L8410 9230
L8690 9100
L8410 8970
L8800 8970
" />
<path d="M8800 8790
L8410 8790
L8410 8700
L8430 8640
L8470 8600
L8500 8580
L8580 8570
L8630 8570
L8710 8580
L8750 8600
L8780 8640
L8800 8700
L8800 8790
" />
<path d="M8840 8490
L8840 8190
" />
<path d="M8410 8160
L8410 7930
" />
<path d="M8800 8050
L8410 8050
" />
<path d="M8800 7800
L8410 7800
" />
<path d="M8600 7800
L8600 7580
" />
<path d="M8800 7580
L8410 7580
" />
</g> 
</svg>
